<?xml version="1.0" encoding="UTF-8"?>
<svg xmlns="http://www.w3.org/2000/svg" xmlns:xlink="http://www.w3.org/1999/xlink" width="854" height="480" viewBox="0 0 854 480">
<defs>
<g>
<g id="glyph-0-0">
<path d="M 1.3125 0.574219 C 1.328125 0.0625 1.335938 -0.421875 1.335938 -0.882812 L 1.335938 -2.984375 C 0.988281 -2.457031 0.652344 -2.027344 0.335938 -1.695312 L 0.261719 -1.765625 C 0.613281 -2.257812 0.9375 -2.832031 1.242188 -3.484375 C 1.542969 -4.136719 1.734375 -4.628906 1.8125 -4.964844 L 2.339844 -4.65625 L 2.101562 -4.511719 C 1.894531 -4.050781 1.703125 -3.652344 1.527344 -3.316406 L 1.863281 -3.125 L 1.671875 -2.9375 L 1.671875 -0.335938 C 1.671875 -0.160156 1.679688 0.078125 1.695312 0.382812 L 1.3125 0.574219 M 3.292969 -2.027344 L 3.292969 -3.746094 C 3.292969 -4.097656 3.285156 -4.503906 3.269531 -4.964844 L 3.820312 -4.703125 L 3.628906 -4.511719 L 3.628906 -2.292969 C 3.851562 -2.5 4.09375 -2.761719 4.355469 -3.078125 C 4.617188 -3.398438 4.804688 -3.652344 4.917969 -3.84375 L 5.347656 -3.4375 L 5.085938 -3.367188 C 4.621094 -2.839844 4.136719 -2.355469 3.628906 -1.910156 L 3.628906 -0.40625 C 3.628906 -0.136719 3.761719 0 4.035156 0 L 5.058594 0 C 5.1875 0 5.265625 -0.101562 5.300781 -0.308594 C 5.332031 -0.515625 5.347656 -0.835938 5.347656 -1.265625 L 5.464844 -1.265625 C 5.496094 -0.835938 5.539062 -0.550781 5.585938 -0.40625 C 5.632812 -0.261719 5.722656 -0.167969 5.847656 -0.121094 C 5.703125 0.167969 5.472656 0.308594 5.15625 0.308594 L 3.890625 0.308594 C 3.492188 0.308594 3.292969 0.128906 3.292969 -0.238281 L 3.292969 -1.695312 C 2.878906 -1.375 2.402344 -1.105469 1.863281 -0.882812 L 1.839844 -0.980469 C 2.394531 -1.296875 2.878906 -1.648438 3.292969 -2.027344 Z "/>
</g>
<g id="glyph-0-1">
<path d="M 2.53125 -1.382812 L 2.53125 -0.644531 L 3.507812 -0.644531 L 3.507812 -1.382812 L 2.53125 -1.382812 M 1.242188 -2.601562 C 1.242188 -0.882812 1.25 0.144531 1.265625 0.476562 L 0.90625 0.644531 C 0.921875 -0.0859375 0.929688 -0.824219 0.929688 -1.5625 C 0.929688 -2.304688 0.921875 -2.800781 0.90625 -3.054688 L 1.433594 -2.816406 L 1.242188 -2.601562 M 1.359375 -3.582031 C 1.726562 -3.390625 1.9375 -3.25 1.992188 -3.164062 C 2.046875 -3.074219 2.078125 -3 2.078125 -2.9375 C 2.078125 -2.886719 2.0625 -2.832031 2.027344 -2.769531 C 1.996094 -2.707031 1.949219 -2.65625 1.886719 -2.625 C 1.820312 -2.59375 1.78125 -2.632812 1.765625 -2.746094 C 1.734375 -2.839844 1.6875 -2.953125 1.625 -3.078125 C 1.558594 -3.207031 1.457031 -3.339844 1.3125 -3.484375 L 1.359375 -3.582031 M 3.890625 -0.0234375 C 4.175781 0.0078125 4.378906 0.0273438 4.5 0.0351562 C 4.617188 0.0429688 4.710938 0.0390625 4.773438 0.0234375 C 4.835938 0.0078125 4.871094 -0.046875 4.871094 -0.144531 L 4.871094 -3.078125 L 3.078125 -3.078125 C 2.953125 -3.078125 2.800781 -3.054688 2.625 -3.007812 L 2.410156 -3.222656 L 4.84375 -3.222656 L 5.058594 -3.4375 L 5.394531 -3.101562 L 5.179688 -2.960938 L 5.179688 0.0234375 C 5.179688 0.136719 5.15625 0.234375 5.109375 0.320312 C 5.058594 0.410156 4.933594 0.492188 4.726562 0.574219 C 4.664062 0.335938 4.382812 0.167969 3.890625 0.0703125 L 3.890625 -0.0234375 M 2.195312 -0.121094 C 2.210938 -0.644531 2.21875 -1.136719 2.21875 -1.597656 C 2.21875 -2.0625 2.210938 -2.394531 2.195312 -2.601562 L 2.53125 -2.386719 L 3.53125 -2.386719 L 3.675781 -2.625 L 4.058594 -2.292969 L 3.820312 -2.101562 C 3.820312 -1.160156 3.835938 -0.597656 3.867188 -0.40625 L 3.507812 -0.261719 L 3.507812 -0.5 L 2.53125 -0.5 L 2.53125 -0.261719 L 2.195312 -0.121094 M 2.53125 -2.242188 L 2.53125 -1.527344 L 3.507812 -1.527344 L 3.507812 -2.242188 L 2.53125 -2.242188 M 1.863281 -4.628906 L 1.671875 -4.558594 L 1.433594 -4.273438 L 2.484375 -4.273438 L 2.746094 -4.535156 L 3.125 -4.128906 L 1.839844 -4.128906 C 2.078125 -4.019531 2.214844 -3.921875 2.253906 -3.84375 C 2.296875 -3.761719 2.316406 -3.707031 2.316406 -3.675781 C 2.316406 -3.644531 2.300781 -3.597656 2.269531 -3.53125 C 2.234375 -3.46875 2.1875 -3.429688 2.125 -3.414062 C 2.0625 -3.398438 2.019531 -3.445312 2.003906 -3.554688 C 1.972656 -3.652344 1.9375 -3.742188 1.898438 -3.832031 C 1.859375 -3.917969 1.789062 -4.019531 1.695312 -4.128906 L 1.335938 -4.128906 C 1.226562 -4.035156 1.097656 -3.90625 0.953125 -3.746094 C 0.796875 -3.574219 0.613281 -3.40625 0.40625 -3.246094 L 0.359375 -3.316406 C 0.566406 -3.539062 0.769531 -3.804688 0.964844 -4.105469 C 1.164062 -4.40625 1.3125 -4.703125 1.410156 -4.988281 L 1.863281 -4.628906 M 4.082031 -4.65625 L 3.867188 -4.558594 L 3.652344 -4.273438 L 5.011719 -4.273438 L 5.273438 -4.535156 L 5.65625 -4.128906 L 4.082031 -4.128906 C 4.367188 -3.984375 4.523438 -3.886719 4.546875 -3.832031 C 4.570312 -3.777344 4.582031 -3.730469 4.582031 -3.699219 C 4.582031 -3.667969 4.574219 -3.632812 4.558594 -3.59375 C 4.542969 -3.550781 4.515625 -3.515625 4.476562 -3.484375 C 4.4375 -3.453125 4.40625 -3.4375 4.390625 -3.4375 C 4.359375 -3.4375 4.332031 -3.464844 4.308594 -3.519531 C 4.285156 -3.578125 4.257812 -3.660156 4.226562 -3.769531 C 4.191406 -3.867188 4.113281 -3.984375 3.984375 -4.128906 L 3.582031 -4.128906 C 3.339844 -3.875 3.085938 -3.636719 2.816406 -3.414062 L 2.746094 -3.484375 C 2.984375 -3.753906 3.179688 -4.03125 3.328125 -4.308594 C 3.480469 -4.585938 3.589844 -4.804688 3.652344 -4.964844 Z "/>
</g>
<g id="glyph-0-2">
<path d="M 3.554688 -0.0234375 C 4.035156 0.0703125 4.304688 0.101562 4.367188 0.0703125 C 4.433594 0.0390625 4.464844 -0.03125 4.464844 -0.144531 L 4.464844 -1.335938 L 2.699219 -1.335938 C 2.492188 -1.335938 2.300781 -1.3125 2.125 -1.265625 L 1.910156 -1.480469 L 4.464844 -1.480469 L 4.464844 -2.125 L 2.984375 -2.125 C 2.777344 -2.125 2.585938 -2.101562 2.410156 -2.054688 L 2.195312 -2.269531 L 4.964844 -2.269531 L 5.226562 -2.53125 L 5.632812 -2.125 L 4.796875 -2.125 L 4.796875 -1.480469 L 5.15625 -1.480469 L 5.441406 -1.765625 L 5.871094 -1.335938 L 4.796875 -1.335938 L 4.796875 -0.0234375 C 4.796875 0.261719 4.628906 0.46875 4.296875 0.597656 C 4.28125 0.4375 4.035156 0.261719 3.554688 0.0703125 L 3.554688 -0.0234375 M 2.722656 -1.242188 C 3.085938 -1.019531 3.308594 -0.847656 3.390625 -0.726562 C 3.46875 -0.609375 3.492188 -0.492188 3.460938 -0.382812 C 3.429688 -0.269531 3.375 -0.203125 3.292969 -0.179688 C 3.214844 -0.15625 3.152344 -0.246094 3.101562 -0.453125 C 3.039062 -0.660156 2.894531 -0.898438 2.671875 -1.167969 L 2.722656 -1.242188 M 1.242188 0.621094 C 1.257812 0.222656 1.265625 -0.144531 1.265625 -0.476562 L 1.265625 -2.171875 C 0.996094 -1.902344 0.675781 -1.648438 0.308594 -1.410156 L 0.261719 -1.503906 C 0.515625 -1.726562 0.785156 -2.003906 1.0625 -2.339844 C 1.339844 -2.671875 1.550781 -2.960938 1.695312 -3.199219 C 1.839844 -3.4375 1.941406 -3.636719 2.003906 -3.796875 L 2.457031 -3.4375 C 2.316406 -3.324219 2.195312 -3.214844 2.101562 -3.101562 C 2.003906 -2.992188 1.839844 -2.792969 1.597656 -2.507812 L 1.597656 0.429688 L 1.242188 0.621094 M 1.789062 -4.988281 L 2.21875 -4.628906 C 2.0625 -4.535156 1.910156 -4.414062 1.765625 -4.273438 C 1.605469 -4.128906 1.398438 -3.945312 1.144531 -3.722656 C 0.890625 -3.5 0.636719 -3.316406 0.382812 -3.175781 L 0.335938 -3.246094 C 0.699219 -3.566406 1 -3.867188 1.230469 -4.152344 C 1.460938 -4.441406 1.648438 -4.71875 1.789062 -4.988281 M 2.648438 -2.484375 C 2.664062 -2.847656 2.671875 -3.238281 2.671875 -3.652344 C 2.671875 -4.066406 2.664062 -4.433594 2.648438 -4.75 L 2.984375 -4.582031 L 4.726562 -4.582031 L 4.941406 -4.796875 L 5.273438 -4.464844 L 5.085938 -4.320312 C 5.085938 -3.523438 5.09375 -2.976562 5.109375 -2.671875 L 4.75 -2.507812 L 4.75 -2.769531 L 2.984375 -2.769531 L 2.984375 -2.625 L 2.648438 -2.484375 M 2.984375 -4.441406 L 2.984375 -3.769531 L 4.75 -3.769531 L 4.75 -4.441406 L 2.984375 -4.441406 M 2.984375 -3.628906 L 2.984375 -2.914062 L 4.75 -2.914062 L 4.75 -3.628906 Z "/>
</g>
<g id="glyph-0-3">
<path d="M 5.085938 -4.273438 L 4.390625 -2.816406 L 5.035156 -2.816406 L 5.273438 -3.054688 L 5.65625 -2.699219 L 5.417969 -2.578125 C 5.179688 -1.878906 4.871094 -1.28125 4.488281 -0.789062 C 4.917969 -0.34375 5.371094 -0.0703125 5.847656 0.0234375 L 5.847656 0.121094 C 5.578125 0.152344 5.417969 0.246094 5.371094 0.40625 C 4.988281 0.199219 4.621094 -0.121094 4.273438 -0.550781 C 3.730469 -0.0546875 3.160156 0.300781 2.554688 0.523438 L 2.507812 0.453125 C 3.109375 0.136719 3.636719 -0.277344 4.082031 -0.789062 C 3.667969 -1.375 3.414062 -2.019531 3.316406 -2.722656 C 3.285156 -1.289062 2.816406 -0.214844 1.910156 0.5 L 1.863281 0.429688 C 2.226562 0.015625 2.492188 -0.394531 2.648438 -0.800781 C 2.808594 -1.207031 2.914062 -1.613281 2.960938 -2.027344 C 3.007812 -2.441406 3.03125 -3.222656 3.03125 -4.367188 L 2.746094 -4.367188 L 2.53125 -4.320312 L 2.339844 -4.511719 L 4.703125 -4.511719 L 4.917969 -4.75 L 5.300781 -4.441406 L 5.085938 -4.273438 M 3.367188 -4.367188 C 3.351562 -3.730469 3.339844 -3.253906 3.339844 -2.9375 C 3.515625 -2.234375 3.828125 -1.597656 4.273438 -1.027344 C 4.558594 -1.390625 4.828125 -1.941406 5.085938 -2.671875 L 4.34375 -2.671875 L 4.152344 -2.457031 L 3.820312 -2.792969 C 3.976562 -2.839844 4.125 -3.007812 4.261719 -3.292969 C 4.394531 -3.582031 4.550781 -3.9375 4.726562 -4.367188 L 3.367188 -4.367188 M 1.648438 -2.699219 C 1.648438 -0.898438 1.65625 0.144531 1.671875 0.429688 L 1.289062 0.597656 C 1.304688 -0.167969 1.3125 -1.167969 1.3125 -2.410156 C 1.089844 -1.789062 0.789062 -1.242188 0.40625 -0.765625 L 0.335938 -0.8125 C 0.765625 -1.589844 1.082031 -2.464844 1.289062 -3.4375 L 0.714844 -3.4375 L 0.5 -3.390625 L 0.308594 -3.582031 L 1.3125 -3.582031 C 1.3125 -4.152344 1.304688 -4.628906 1.289062 -5.011719 L 1.839844 -4.75 L 1.648438 -4.582031 L 1.648438 -3.582031 L 1.933594 -3.582031 L 2.21875 -3.867188 L 2.648438 -3.4375 L 1.648438 -3.4375 L 1.648438 -2.816406 C 2.0625 -2.625 2.308594 -2.476562 2.386719 -2.375 C 2.464844 -2.273438 2.507812 -2.179688 2.507812 -2.101562 C 2.507812 -2.019531 2.484375 -1.9375 2.433594 -1.851562 C 2.386719 -1.761719 2.347656 -1.71875 2.316406 -1.71875 C 2.269531 -1.71875 2.210938 -1.796875 2.148438 -1.957031 C 2.054688 -2.195312 1.886719 -2.441406 1.648438 -2.699219 Z "/>
</g>
<g id="glyph-0-4">
<path d="M 3.03125 -3.339844 L 3.03125 -2.433594 L 4.703125 -2.433594 L 4.703125 -3.339844 L 3.03125 -3.339844 M 2.625 0.121094 C 2.6875 0.0234375 2.722656 -0.0859375 2.722656 -0.214844 C 2.722656 -3.015625 2.714844 -4.527344 2.699219 -4.75 L 3.03125 -4.535156 L 4.679688 -4.535156 L 4.871094 -4.796875 L 5.25 -4.464844 L 5.035156 -4.320312 C 5.035156 -3.332031 5.042969 -2.640625 5.058594 -2.242188 L 4.703125 -2.078125 L 4.703125 -2.292969 L 3.652344 -2.292969 C 3.730469 -1.925781 3.882812 -1.542969 4.105469 -1.144531 C 4.519531 -1.449219 4.863281 -1.773438 5.132812 -2.125 L 5.515625 -1.695312 C 5.292969 -1.695312 4.84375 -1.472656 4.175781 -1.027344 C 4.464844 -0.660156 4.761719 -0.410156 5.074219 -0.273438 C 5.382812 -0.140625 5.617188 -0.0625 5.777344 -0.046875 L 5.777344 0.046875 C 5.554688 0.0625 5.386719 0.175781 5.273438 0.382812 C 4.894531 0.191406 4.53125 -0.121094 4.1875 -0.550781 C 3.847656 -0.980469 3.621094 -1.558594 3.507812 -2.292969 L 3.03125 -2.292969 L 3.03125 -0.121094 L 3.9375 -0.550781 L 3.984375 -0.476562 C 3.476562 -0.160156 3.125 0.167969 2.9375 0.5 L 2.625 0.121094 M 1.457031 -2.9375 L 1.839844 -4.414062 L 1.003906 -4.414062 L 1.003906 -0.691406 C 1.003906 -0.261719 1.011719 0.121094 1.027344 0.453125 L 0.667969 0.597656 C 0.683594 0.199219 0.691406 -0.71875 0.691406 -2.160156 C 0.691406 -3.601562 0.683594 -4.464844 0.667969 -4.75 L 1.027344 -4.558594 L 1.839844 -4.558594 L 2.054688 -4.773438 L 2.363281 -4.464844 L 2.171875 -4.34375 L 1.574219 -2.9375 C 1.796875 -2.699219 1.96875 -2.476562 2.089844 -2.28125 C 2.207031 -2.082031 2.28125 -1.863281 2.304688 -1.625 C 2.328125 -1.382812 2.292969 -1.179688 2.195312 -1.015625 C 2.101562 -0.847656 1.902344 -0.722656 1.597656 -0.644531 C 1.613281 -0.835938 1.449219 -1.003906 1.097656 -1.144531 L 1.097656 -1.242188 C 1.335938 -1.195312 1.503906 -1.167969 1.597656 -1.167969 C 1.757812 -1.167969 1.863281 -1.207031 1.910156 -1.277344 C 1.957031 -1.347656 1.980469 -1.449219 1.980469 -1.574219 C 1.980469 -1.6875 1.964844 -1.839844 1.933594 -2.027344 C 1.902344 -2.21875 1.742188 -2.523438 1.457031 -2.9375 M 3.03125 -4.390625 L 3.03125 -3.484375 L 4.703125 -3.484375 L 4.703125 -4.390625 Z "/>
</g>
<g id="glyph-0-5">
<path d="M 1.195312 -4.65625 C 1.75 -4.320312 2.042969 -4.078125 2.078125 -3.925781 C 2.109375 -3.777344 2.09375 -3.660156 2.027344 -3.582031 C 1.964844 -3.5 1.917969 -3.460938 1.886719 -3.460938 C 1.820312 -3.460938 1.765625 -3.539062 1.71875 -3.699219 C 1.625 -3.9375 1.425781 -4.234375 1.121094 -4.582031 L 1.195312 -4.65625 M 2.914062 -5.011719 L 3.554688 -4.703125 L 3.316406 -4.535156 C 3.269531 -4.074219 3.214844 -3.613281 3.152344 -3.152344 L 5.179688 -3.152344 L 5.371094 -3.460938 L 5.800781 -3.125 L 5.585938 -2.9375 C 5.472656 -1.503906 5.390625 -0.648438 5.335938 -0.371094 C 5.277344 -0.0898438 5.171875 0.121094 5.011719 0.261719 C 4.855469 0.40625 4.65625 0.507812 4.414062 0.574219 C 4.320312 0.300781 3.996094 0.113281 3.4375 0 L 3.4375 -0.121094 C 3.976562 -0.0390625 4.335938 -0.00390625 4.511719 -0.0117188 C 4.6875 -0.0195312 4.8125 -0.101562 4.894531 -0.261719 C 4.972656 -0.421875 5.085938 -1.335938 5.226562 -3.007812 L 3.125 -3.007812 C 2.921875 -2.003906 2.546875 -1.21875 2.003906 -0.644531 C 1.464844 -0.0703125 0.914062 0.335938 0.359375 0.574219 L 0.308594 0.5 C 0.898438 0.121094 1.417969 -0.371094 1.863281 -0.964844 C 2.308594 -1.5625 2.601562 -2.242188 2.746094 -3.007812 L 1.335938 -3.007812 C 1.128906 -3.007812 0.9375 -2.984375 0.765625 -2.9375 L 0.550781 -3.152344 L 2.769531 -3.152344 C 2.863281 -3.707031 2.914062 -4.328125 2.914062 -5.011719 M 3.199219 -2.292969 C 3.929688 -1.957031 4.335938 -1.730469 4.414062 -1.609375 C 4.496094 -1.492188 4.535156 -1.382812 4.535156 -1.289062 C 4.535156 -1.210938 4.519531 -1.128906 4.488281 -1.050781 C 4.457031 -0.972656 4.425781 -0.929688 4.390625 -0.929688 C 4.34375 -0.929688 4.265625 -1.019531 4.152344 -1.195312 C 3.996094 -1.449219 3.660156 -1.78125 3.152344 -2.195312 Z "/>
</g>
<g id="glyph-1-0">
<path d="M 3.125 0 L 0.328125 0 L 0.328125 -0.40625 C 0.382812 -0.46875 0.457031 -0.539062 0.550781 -0.617188 C 0.648438 -0.691406 0.761719 -0.773438 0.890625 -0.863281 C 0.972656 -0.917969 1.066406 -0.976562 1.179688 -1.039062 C 1.289062 -1.105469 1.417969 -1.171875 1.558594 -1.25 C 1.714844 -1.332031 1.835938 -1.40625 1.921875 -1.46875 C 2.003906 -1.53125 2.082031 -1.613281 2.152344 -1.703125 C 2.195312 -1.765625 2.234375 -1.84375 2.261719 -1.9375 C 2.289062 -2.027344 2.304688 -2.160156 2.304688 -2.332031 C 2.304688 -2.578125 2.238281 -2.761719 2.105469 -2.878906 C 1.96875 -2.996094 1.800781 -3.050781 1.589844 -3.050781 C 1.460938 -3.050781 1.339844 -3.027344 1.222656 -2.976562 C 1.109375 -2.925781 1.019531 -2.855469 0.964844 -2.765625 C 0.976562 -2.703125 0.996094 -2.625 1.015625 -2.539062 C 1.035156 -2.453125 1.046875 -2.367188 1.046875 -2.28125 C 1.046875 -2.207031 1.015625 -2.140625 0.953125 -2.082031 C 0.890625 -2.023438 0.796875 -1.992188 0.675781 -1.992188 C 0.574219 -1.992188 0.5 -2.027344 0.445312 -2.097656 C 0.390625 -2.164062 0.363281 -2.257812 0.363281 -2.371094 C 0.363281 -2.480469 0.394531 -2.585938 0.453125 -2.695312 C 0.511719 -2.804688 0.597656 -2.902344 0.710938 -2.996094 C 0.820312 -3.085938 0.953125 -3.15625 1.117188 -3.214844 C 1.277344 -3.269531 1.449219 -3.296875 1.636719 -3.296875 C 2.046875 -3.296875 2.371094 -3.207031 2.609375 -3.023438 C 2.847656 -2.84375 2.96875 -2.597656 2.96875 -2.296875 C 2.96875 -2.152344 2.949219 -2.019531 2.90625 -1.898438 C 2.863281 -1.78125 2.792969 -1.675781 2.699219 -1.582031 C 2.59375 -1.480469 2.46875 -1.394531 2.328125 -1.324219 C 2.1875 -1.25 1.96875 -1.148438 1.679688 -1.019531 C 1.507812 -0.941406 1.34375 -0.863281 1.195312 -0.777344 C 1.046875 -0.691406 0.925781 -0.609375 0.828125 -0.53125 L 3.125 -0.53125 Z "/>
</g>
</g>
</defs>
<g fill="rgb(100%, 100%, 100%)" fill-opacity="1">
<use xlink:href="#glyph-0-0" x="30" y="26"/>
<use xlink:href="#glyph-0-1" x="36" y="26"/>
<use xlink:href="#glyph-0-2" x="42" y="26"/>
<use xlink:href="#glyph-0-3" x="48" y="26"/>
<use xlink:href="#glyph-0-4" x="54" y="26"/>
<use xlink:href="#glyph-0-5" x="60" y="26"/>
</g>
<g fill="rgb(100%, 100%, 100%)" fill-opacity="1">
<use xlink:href="#glyph-1-0" x="66" y="25.603516"/>
</g>
</svg>
