<?xml version="1.0" encoding="UTF-8"?>
<svg xmlns="http://www.w3.org/2000/svg" xmlns:xlink="http://www.w3.org/1999/xlink" width="854" height="480" viewBox="0 0 854 480">
<defs>
<g>
<g id="glyph-0-0">
<path d="M 5.085938 -4.273438 L 4.390625 -2.816406 L 5.035156 -2.816406 L 5.273438 -3.054688 L 5.65625 -2.699219 L 5.417969 -2.578125 C 5.179688 -1.878906 4.871094 -1.28125 4.488281 -0.789062 C 4.917969 -0.34375 5.371094 -0.0703125 5.847656 0.0234375 L 5.847656 0.121094 C 5.578125 0.152344 5.417969 0.246094 5.371094 0.40625 C 4.988281 0.199219 4.621094 -0.121094 4.273438 -0.550781 C 3.730469 -0.0546875 3.160156 0.300781 2.554688 0.523438 L 2.507812 0.453125 C 3.109375 0.136719 3.636719 -0.277344 4.082031 -0.789062 C 3.667969 -1.375 3.414062 -2.019531 3.316406 -2.722656 C 3.285156 -1.289062 2.816406 -0.214844 1.910156 0.5 L 1.863281 0.429688 C 2.226562 0.015625 2.492188 -0.394531 2.648438 -0.800781 C 2.808594 -1.207031 2.914062 -1.613281 2.960938 -2.027344 C 3.007812 -2.441406 3.03125 -3.222656 3.03125 -4.367188 L 2.746094 -4.367188 L 2.53125 -4.320312 L 2.339844 -4.511719 L 4.703125 -4.511719 L 4.917969 -4.75 L 5.300781 -4.441406 L 5.085938 -4.273438 M 3.367188 -4.367188 C 3.351562 -3.730469 3.339844 -3.253906 3.339844 -2.9375 C 3.515625 -2.234375 3.828125 -1.597656 4.273438 -1.027344 C 4.558594 -1.390625 4.828125 -1.941406 5.085938 -2.671875 L 4.34375 -2.671875 L 4.152344 -2.457031 L 3.820312 -2.792969 C 3.976562 -2.839844 4.125 -3.007812 4.261719 -3.292969 C 4.394531 -3.582031 4.550781 -3.9375 4.726562 -4.367188 L 3.367188 -4.367188 M 1.648438 -2.699219 C 1.648438 -0.898438 1.65625 0.144531 1.671875 0.429688 L 1.289062 0.597656 C 1.304688 -0.167969 1.3125 -1.167969 1.3125 -2.410156 C 1.089844 -1.789062 0.789062 -1.242188 0.40625 -0.765625 L 0.335938 -0.8125 C 0.765625 -1.589844 1.082031 -2.464844 1.289062 -3.4375 L 0.714844 -3.4375 L 0.5 -3.390625 L 0.308594 -3.582031 L 1.3125 -3.582031 C 1.3125 -4.152344 1.304688 -4.628906 1.289062 -5.011719 L 1.839844 -4.75 L 1.648438 -4.582031 L 1.648438 -3.582031 L 1.933594 -3.582031 L 2.21875 -3.867188 L 2.648438 -3.4375 L 1.648438 -3.4375 L 1.648438 -2.816406 C 2.0625 -2.625 2.308594 -2.476562 2.386719 -2.375 C 2.464844 -2.273438 2.507812 -2.179688 2.507812 -2.101562 C 2.507812 -2.019531 2.484375 -1.9375 2.433594 -1.851562 C 2.386719 -1.761719 2.347656 -1.71875 2.316406 -1.71875 C 2.269531 -1.71875 2.210938 -1.796875 2.148438 -1.957031 C 2.054688 -2.195312 1.886719 -2.441406 1.648438 -2.699219 Z "/>
</g>
<g id="glyph-0-1">
<path d="M 3.03125 -3.339844 L 3.03125 -2.433594 L 4.703125 -2.433594 L 4.703125 -3.339844 L 3.03125 -3.339844 M 2.625 0.121094 C 2.6875 0.0234375 2.722656 -0.0859375 2.722656 -0.214844 C 2.722656 -3.015625 2.714844 -4.527344 2.699219 -4.75 L 3.03125 -4.535156 L 4.679688 -4.535156 L 4.871094 -4.796875 L 5.25 -4.464844 L 5.035156 -4.320312 C 5.035156 -3.332031 5.042969 -2.640625 5.058594 -2.242188 L 4.703125 -2.078125 L 4.703125 -2.292969 L 3.652344 -2.292969 C 3.730469 -1.925781 3.882812 -1.542969 4.105469 -1.144531 C 4.519531 -1.449219 4.863281 -1.773438 5.132812 -2.125 L 5.515625 -1.695312 C 5.292969 -1.695312 4.84375 -1.472656 4.175781 -1.027344 C 4.464844 -0.660156 4.761719 -0.410156 5.074219 -0.273438 C 5.382812 -0.140625 5.617188 -0.0625 5.777344 -0.046875 L 5.777344 0.046875 C 5.554688 0.0625 5.386719 0.175781 5.273438 0.382812 C 4.894531 0.191406 4.53125 -0.121094 4.1875 -0.550781 C 3.847656 -0.980469 3.621094 -1.558594 3.507812 -2.292969 L 3.03125 -2.292969 L 3.03125 -0.121094 L 3.9375 -0.550781 L 3.984375 -0.476562 C 3.476562 -0.160156 3.125 0.167969 2.9375 0.5 L 2.625 0.121094 M 1.457031 -2.9375 L 1.839844 -4.414062 L 1.003906 -4.414062 L 1.003906 -0.691406 C 1.003906 -0.261719 1.011719 0.121094 1.027344 0.453125 L 0.667969 0.597656 C 0.683594 0.199219 0.691406 -0.71875 0.691406 -2.160156 C 0.691406 -3.601562 0.683594 -4.464844 0.667969 -4.75 L 1.027344 -4.558594 L 1.839844 -4.558594 L 2.054688 -4.773438 L 2.363281 -4.464844 L 2.171875 -4.34375 L 1.574219 -2.9375 C 1.796875 -2.699219 1.96875 -2.476562 2.089844 -2.28125 C 2.207031 -2.082031 2.28125 -1.863281 2.304688 -1.625 C 2.328125 -1.382812 2.292969 -1.179688 2.195312 -1.015625 C 2.101562 -0.847656 1.902344 -0.722656 1.597656 -0.644531 C 1.613281 -0.835938 1.449219 -1.003906 1.097656 -1.144531 L 1.097656 -1.242188 C 1.335938 -1.195312 1.503906 -1.167969 1.597656 -1.167969 C 1.757812 -1.167969 1.863281 -1.207031 1.910156 -1.277344 C 1.957031 -1.347656 1.980469 -1.449219 1.980469 -1.574219 C 1.980469 -1.6875 1.964844 -1.839844 1.933594 -2.027344 C 1.902344 -2.21875 1.742188 -2.523438 1.457031 -2.9375 M 3.03125 -4.390625 L 3.03125 -3.484375 L 4.703125 -3.484375 L 4.703125 -4.390625 Z "/>
</g>
<g id="glyph-0-2">
<path d="M 1.648438 -2.21875 L 2.433594 -2.53125 L 2.484375 -2.457031 L 1.648438 -1.980469 L 1.648438 -0.0703125 C 1.632812 0.214844 1.464844 0.421875 1.144531 0.550781 C 1.128906 0.34375 0.898438 0.175781 0.453125 0.046875 L 0.453125 -0.0703125 C 0.722656 -0.0234375 0.933594 0.0078125 1.085938 0.0234375 C 1.238281 0.0390625 1.3125 -0.0546875 1.3125 -0.261719 L 1.3125 -1.8125 C 0.867188 -1.574219 0.628906 -1.410156 0.597656 -1.3125 L 0.285156 -1.742188 C 0.476562 -1.789062 0.820312 -1.910156 1.3125 -2.101562 L 1.3125 -3.367188 L 0.765625 -3.367188 L 0.5 -3.292969 L 0.285156 -3.507812 L 1.3125 -3.507812 C 1.3125 -4.191406 1.304688 -4.703125 1.289062 -5.035156 L 1.886719 -4.773438 L 1.648438 -4.582031 L 1.648438 -3.507812 L 1.910156 -3.507812 L 2.171875 -3.769531 L 2.578125 -3.367188 L 1.648438 -3.367188 L 1.648438 -2.21875 M 3.222656 -3.84375 C 3.222656 -4.289062 3.214844 -4.65625 3.199219 -4.941406 L 3.769531 -4.679688 L 3.53125 -4.511719 L 3.53125 -3.84375 L 4.390625 -3.84375 C 4.390625 -4.273438 4.382812 -4.640625 4.367188 -4.941406 L 4.941406 -4.703125 L 4.703125 -4.535156 L 4.703125 -3.84375 L 5.058594 -3.84375 L 5.347656 -4.128906 L 5.777344 -3.699219 L 4.703125 -3.699219 C 4.703125 -3.476562 4.710938 -3.238281 4.726562 -2.984375 L 4.390625 -2.863281 L 4.390625 -3.699219 L 3.53125 -3.699219 L 3.53125 -2.9375 L 3.199219 -2.792969 C 3.214844 -3.125 3.222656 -3.429688 3.222656 -3.699219 L 2.792969 -3.699219 L 2.507812 -3.652344 L 2.316406 -3.84375 L 3.222656 -3.84375 M 2.914062 -2.386719 L 2.914062 -1.410156 L 3.867188 -1.410156 L 3.867188 -2.386719 L 2.914062 -2.386719 M 4.175781 -2.386719 L 4.175781 -1.410156 L 5.109375 -1.410156 L 5.109375 -2.386719 L 4.175781 -2.386719 M 2.914062 -1.265625 L 2.914062 -0.09375 L 3.867188 -0.09375 L 3.867188 -1.265625 L 2.914062 -1.265625 M 4.175781 -1.265625 L 4.175781 -0.09375 L 5.109375 -0.09375 L 5.109375 -1.265625 L 4.175781 -1.265625 M 5.417969 -2.316406 C 5.417969 -0.882812 5.425781 -0.0078125 5.441406 0.308594 L 5.109375 0.453125 L 5.109375 0.046875 L 2.914062 0.046875 L 2.914062 0.335938 L 2.578125 0.5 C 2.59375 0.121094 2.601562 -0.453125 2.601562 -1.21875 C 2.601562 -1.980469 2.59375 -2.484375 2.578125 -2.722656 L 2.914062 -2.53125 L 5.058594 -2.53125 L 5.203125 -2.769531 L 5.585938 -2.484375 Z "/>
</g>
<g id="glyph-0-3">
<path d="M 4.199219 -4.511719 L 4.25 -4.582031 C 4.519531 -4.503906 4.71875 -4.429688 4.84375 -4.355469 C 4.972656 -4.285156 5.035156 -4.195312 5.035156 -4.09375 C 5.035156 -3.992188 5.015625 -3.90625 4.976562 -3.84375 C 4.9375 -3.78125 4.902344 -3.746094 4.871094 -3.746094 C 4.820312 -3.746094 4.765625 -3.8125 4.703125 -3.9375 C 4.605469 -4.113281 4.441406 -4.304688 4.199219 -4.511719 M 1.71875 -3.414062 L 3.460938 -3.414062 C 3.460938 -4.066406 3.453125 -4.574219 3.4375 -4.941406 L 4.011719 -4.679688 L 3.796875 -4.511719 L 3.796875 -3.414062 L 4.917969 -3.414062 L 5.25 -3.746094 L 5.703125 -3.269531 L 3.796875 -3.269531 L 3.796875 -2.863281 C 4.289062 -2.546875 4.671875 -2.273438 4.941406 -2.039062 C 5.210938 -1.808594 5.359375 -1.652344 5.382812 -1.5625 C 5.40625 -1.476562 5.417969 -1.390625 5.417969 -1.3125 C 5.417969 -1.203125 5.398438 -1.105469 5.359375 -1.027344 C 5.320312 -0.945312 5.28125 -0.90625 5.25 -0.90625 C 5.203125 -0.90625 5.140625 -0.988281 5.058594 -1.144531 C 4.949219 -1.382812 4.796875 -1.632812 4.605469 -1.886719 C 4.414062 -2.140625 4.144531 -2.417969 3.796875 -2.722656 C 3.796875 -1.382812 3.804688 -0.582031 3.820312 -0.308594 L 3.4375 -0.121094 C 3.453125 -0.582031 3.460938 -1.457031 3.460938 -2.746094 C 3.0625 -1.964844 2.464844 -1.296875 1.671875 -0.738281 L 1.625 -0.8125 C 2.433594 -1.589844 3 -2.410156 3.316406 -3.269531 L 2.53125 -3.269531 C 2.308594 -3.269531 2.109375 -3.246094 1.933594 -3.199219 L 1.71875 -3.414062 M 1.503906 -0.667969 C 1.648438 -0.542969 1.855469 -0.398438 2.125 -0.238281 C 2.394531 -0.078125 2.871094 0.0117188 3.554688 0.0351562 C 4.242188 0.0585938 5.011719 0.0234375 5.871094 -0.0703125 L 5.871094 0.0234375 C 5.539062 0.152344 5.371094 0.292969 5.371094 0.453125 C 4.640625 0.453125 4.042969 0.4375 3.582031 0.40625 C 3.117188 0.375 2.746094 0.300781 2.457031 0.191406 C 2.171875 0.078125 1.933594 -0.0703125 1.742188 -0.261719 C 1.550781 -0.4375 1.417969 -0.523438 1.335938 -0.523438 C 1.257812 -0.523438 1.128906 -0.445312 0.953125 -0.285156 C 0.78125 -0.128906 0.652344 0.03125 0.574219 0.191406 L 0.238281 -0.121094 C 0.542969 -0.34375 0.859375 -0.53125 1.195312 -0.691406 L 1.195312 -2.648438 L 0.882812 -2.648438 C 0.773438 -2.648438 0.628906 -2.625 0.453125 -2.578125 L 0.238281 -2.792969 L 1.144531 -2.792969 L 1.3125 -3.03125 L 1.71875 -2.722656 L 1.503906 -2.578125 L 1.503906 -0.667969 M 0.738281 -4.679688 L 0.8125 -4.726562 C 1.097656 -4.582031 1.300781 -4.449219 1.421875 -4.320312 C 1.539062 -4.191406 1.589844 -4.070312 1.574219 -3.949219 C 1.558594 -3.832031 1.519531 -3.742188 1.457031 -3.6875 C 1.390625 -3.632812 1.34375 -3.605469 1.3125 -3.605469 C 1.25 -3.605469 1.195312 -3.707031 1.144531 -3.914062 C 1.082031 -4.167969 0.945312 -4.425781 0.738281 -4.679688 Z "/>
</g>
<g id="glyph-0-4">
<path d="M 3.722656 -4.988281 L 4.226562 -4.679688 L 4.035156 -4.605469 C 3.890625 -4.382812 3.753906 -4.167969 3.628906 -3.960938 L 4.535156 -3.960938 L 4.75 -4.226562 L 5.15625 -3.84375 C 4.964844 -3.828125 4.671875 -3.523438 4.273438 -2.9375 L 5.109375 -2.9375 L 5.25 -3.175781 L 5.632812 -2.914062 L 5.464844 -2.746094 C 5.464844 -1.582031 5.472656 -0.835938 5.488281 -0.5 L 5.15625 -0.359375 L 5.15625 -0.765625 L 3.554688 -0.765625 C 3.429688 -0.765625 3.277344 -0.738281 3.101562 -0.691406 L 2.886719 -0.90625 L 5.15625 -0.90625 L 5.15625 -1.8125 L 3.867188 -1.8125 C 3.738281 -1.8125 3.589844 -1.789062 3.414062 -1.742188 L 3.199219 -1.957031 L 5.15625 -1.957031 L 5.15625 -2.792969 L 3.722656 -2.792969 C 3.597656 -2.792969 3.445312 -2.769531 3.269531 -2.722656 L 3.054688 -2.9375 L 4.152344 -2.9375 L 4.558594 -3.820312 L 3.554688 -3.820312 C 3.382812 -3.582031 3.152344 -3.324219 2.863281 -3.054688 L 2.816406 -3.101562 C 3.261719 -3.738281 3.566406 -4.367188 3.722656 -4.988281 M 0.285156 0.523438 L 0.214844 0.476562 C 0.5 -0.015625 0.679688 -0.527344 0.75 -1.0625 C 0.824219 -1.59375 0.84375 -2.011719 0.8125 -2.316406 L 1.335938 -2.054688 C 1.242188 -2.003906 1.179688 -1.898438 1.15625 -1.730469 C 1.132812 -1.5625 1.105469 -1.328125 1.074219 -1.027344 C 1.3125 -0.820312 1.503906 -0.675781 1.648438 -0.597656 L 1.648438 -2.699219 L 0.90625 -2.699219 C 0.78125 -2.699219 0.628906 -2.671875 0.453125 -2.625 L 0.238281 -2.839844 L 1.527344 -2.839844 L 1.527344 -3.84375 L 1.167969 -3.84375 C 1.042969 -3.84375 0.890625 -3.820312 0.714844 -3.769531 L 0.5 -3.984375 L 1.527344 -3.984375 C 1.527344 -4.304688 1.519531 -4.640625 1.503906 -4.988281 L 2.027344 -4.75 L 1.839844 -4.582031 L 1.839844 -3.984375 L 2.292969 -3.984375 L 2.578125 -4.273438 L 2.960938 -3.84375 L 1.839844 -3.84375 L 1.839844 -2.839844 L 2.363281 -2.839844 L 2.671875 -3.125 L 3.054688 -2.699219 L 1.671875 -2.699219 L 2.148438 -2.484375 L 1.957031 -2.292969 L 1.957031 -1.71875 L 2.507812 -1.71875 L 2.792969 -2.003906 L 3.152344 -1.574219 L 1.957031 -1.574219 L 1.957031 -0.40625 C 2.515625 -0.152344 3.050781 -0.015625 3.570312 0 C 4.085938 0.015625 4.464844 0.0234375 4.703125 0.0234375 C 5.148438 0.0234375 5.539062 0.0078125 5.871094 -0.0234375 L 5.871094 0.046875 C 5.585938 0.175781 5.441406 0.308594 5.441406 0.453125 C 4.964844 0.46875 4.429688 0.449219 3.832031 0.394531 C 3.234375 0.339844 2.699219 0.210938 2.21875 0.0117188 C 1.742188 -0.1875 1.351562 -0.476562 1.050781 -0.859375 C 0.84375 -0.269531 0.589844 0.191406 0.285156 0.523438 Z "/>
</g>
<g id="glyph-0-5">
<path d="M 1.574219 -3.984375 C 1.574219 -4.367188 1.566406 -4.695312 1.550781 -4.964844 L 2.054688 -4.726562 L 1.886719 -4.582031 L 1.886719 -3.984375 L 2.101562 -3.984375 L 2.363281 -4.25 L 2.769531 -3.84375 L 1.886719 -3.84375 L 1.886719 -3.269531 C 2.15625 -3.332031 2.417969 -3.398438 2.671875 -3.460938 L 2.699219 -3.367188 C 2.425781 -3.269531 2.15625 -3.175781 1.886719 -3.078125 L 1.886719 -2.054688 C 1.902344 -1.828125 1.742188 -1.648438 1.410156 -1.503906 C 1.390625 -1.679688 1.175781 -1.820312 0.765625 -1.933594 L 0.765625 -2.054688 C 1.035156 -2.019531 1.238281 -2 1.371094 -1.992188 C 1.507812 -1.984375 1.574219 -2.0625 1.574219 -2.21875 L 1.574219 -2.960938 C 0.972656 -2.738281 0.667969 -2.59375 0.667969 -2.53125 L 0.382812 -2.960938 C 0.492188 -2.960938 0.890625 -3.039062 1.574219 -3.199219 L 1.574219 -3.84375 L 1.242188 -3.84375 C 1.035156 -3.84375 0.84375 -3.820312 0.667969 -3.769531 L 0.453125 -3.984375 L 1.574219 -3.984375 M 3.484375 -3.984375 L 3.484375 -4.320312 C 3.484375 -4.542969 3.476562 -4.765625 3.460938 -4.988281 L 3.984375 -4.75 L 3.796875 -4.582031 L 3.796875 -4.011719 L 4.488281 -4.058594 L 4.628906 -4.273438 L 4.964844 -4.011719 L 4.796875 -3.867188 C 4.78125 -3.769531 4.773438 -3.621094 4.773438 -3.414062 C 4.773438 -3.191406 4.789062 -2.949219 4.820312 -2.683594 C 4.855469 -2.421875 4.972656 -2.21875 5.179688 -2.078125 C 5.292969 -2.378906 5.378906 -2.65625 5.441406 -2.914062 L 5.539062 -2.886719 C 5.488281 -2.570312 5.464844 -2.324219 5.464844 -2.148438 C 5.464844 -1.972656 5.496094 -1.820312 5.5625 -1.695312 C 5.609375 -1.613281 5.59375 -1.574219 5.515625 -1.574219 C 5.480469 -1.574219 5.386719 -1.605469 5.226562 -1.671875 C 5.070312 -1.734375 4.921875 -1.859375 4.785156 -2.039062 C 4.652344 -2.222656 4.5625 -2.417969 4.523438 -2.625 C 4.484375 -2.832031 4.464844 -3.0625 4.464844 -3.316406 C 4.464844 -3.554688 4.472656 -3.753906 4.488281 -3.914062 L 3.796875 -3.867188 C 3.761719 -3.484375 3.691406 -3.167969 3.582031 -2.914062 C 3.804688 -2.816406 3.964844 -2.734375 4.070312 -2.660156 C 4.171875 -2.589844 4.214844 -2.492188 4.1875 -2.363281 C 4.164062 -2.234375 4.128906 -2.171875 4.082031 -2.171875 C 4.050781 -2.171875 4.003906 -2.210938 3.9375 -2.292969 C 3.8125 -2.433594 3.652344 -2.570312 3.460938 -2.699219 C 3.207031 -2.316406 2.722656 -1.988281 2.003906 -1.71875 L 1.957031 -1.789062 C 2.609375 -2.125 3.03125 -2.472656 3.222656 -2.839844 C 3.125 -2.921875 2.960938 -3.023438 2.722656 -3.152344 L 2.769531 -3.222656 C 2.976562 -3.160156 3.160156 -3.09375 3.316406 -3.03125 C 3.398438 -3.238281 3.453125 -3.507812 3.484375 -3.84375 L 3.152344 -3.820312 L 2.984375 -3.746094 L 2.746094 -3.9375 L 3.484375 -3.984375 M 2.484375 -1.359375 C 2.53125 -1.535156 2.5625 -1.726562 2.578125 -1.933594 L 3.03125 -1.695312 L 2.863281 -1.574219 L 2.816406 -1.359375 L 4.511719 -1.359375 L 4.65625 -1.597656 L 5.085938 -1.3125 L 4.894531 -1.167969 C 4.84375 -0.644531 4.800781 -0.289062 4.761719 -0.105469 C 4.722656 0.0742188 4.648438 0.222656 4.535156 0.335938 C 4.425781 0.445312 4.257812 0.523438 4.035156 0.574219 C 4.050781 0.414062 3.867188 0.238281 3.484375 0.046875 L 3.507812 -0.046875 C 3.859375 0.046875 4.09375 0.0898438 4.214844 0.0820312 C 4.332031 0.0742188 4.414062 -0.0507812 4.464844 -0.296875 C 4.511719 -0.546875 4.542969 -0.851562 4.558594 -1.21875 L 2.792969 -1.21875 C 2.714844 -0.898438 2.601562 -0.636719 2.457031 -0.429688 C 2.316406 -0.222656 2.09375 -0.0273438 1.789062 0.15625 C 1.488281 0.339844 1.035156 0.492188 0.429688 0.621094 L 0.382812 0.523438 C 1.082031 0.316406 1.574219 0.078125 1.863281 -0.191406 C 2.148438 -0.460938 2.347656 -0.804688 2.457031 -1.21875 L 1.382812 -1.21875 C 1.175781 -1.21875 0.988281 -1.195312 0.8125 -1.144531 L 0.597656 -1.359375 Z "/>
</g>
<g id="glyph-0-6">
<path d="M 1.085938 -0.144531 C 1.171875 -0.253906 1.25 -0.414062 1.3125 -0.621094 C 1.167969 -0.621094 1.066406 -0.644531 1.003906 -0.691406 C 0.9375 -0.738281 0.894531 -0.804688 0.871094 -0.882812 C 0.847656 -0.960938 0.84375 -1.039062 0.859375 -1.109375 C 0.875 -1.179688 0.929688 -1.253906 1.027344 -1.324219 C 1.121094 -1.394531 1.242188 -1.417969 1.382812 -1.382812 C 1.527344 -1.351562 1.613281 -1.292969 1.648438 -1.207031 C 1.679688 -1.117188 1.695312 -1.035156 1.695312 -0.953125 C 1.695312 -0.859375 1.671875 -0.734375 1.625 -0.585938 C 1.574219 -0.433594 1.46875 -0.265625 1.300781 -0.0820312 C 1.132812 0.0976562 1 0.199219 0.894531 0.214844 C 0.792969 0.230469 0.738281 0.230469 0.738281 0.214844 C 0.738281 0.199219 0.765625 0.175781 0.8125 0.144531 C 0.90625 0.0625 1 -0.03125 1.085938 -0.144531 Z "/>
</g>
<g id="glyph-0-7">
<path d="M 3.9375 -0.0703125 C 4.382812 -0.0078125 4.640625 0.0078125 4.703125 -0.0234375 C 4.765625 -0.0546875 4.796875 -0.136719 4.796875 -0.261719 L 4.796875 -3.054688 L 3.769531 -3.054688 L 3.769531 0.0234375 L 3.460938 0.144531 L 3.460938 -3.054688 L 2.53125 -3.054688 L 2.53125 0.046875 L 2.21875 0.191406 L 2.21875 -3.054688 L 1.289062 -3.054688 L 1.289062 0.214844 L 0.929688 0.453125 C 0.945312 -0.214844 0.953125 -0.953125 0.953125 -1.765625 C 0.953125 -2.578125 0.945312 -3.125 0.929688 -3.414062 L 1.289062 -3.199219 L 2.484375 -3.199219 L 2.792969 -4.296875 L 1.050781 -4.296875 C 0.84375 -4.296875 0.652344 -4.273438 0.476562 -4.226562 L 0.261719 -4.441406 L 4.941406 -4.441406 L 5.324219 -4.773438 L 5.800781 -4.296875 L 3.292969 -4.296875 C 3.167969 -4.136719 2.9375 -3.769531 2.601562 -3.199219 L 4.773438 -3.199219 L 4.964844 -3.4375 L 5.394531 -3.078125 L 5.132812 -2.914062 L 5.132812 -0.144531 C 5.132812 0.046875 5.101562 0.183594 5.035156 0.261719 C 4.972656 0.34375 4.835938 0.429688 4.628906 0.523438 C 4.550781 0.316406 4.320312 0.152344 3.9375 0.0234375 Z "/>
</g>
<g id="glyph-0-8">
<path d="M 2.269531 0.597656 C 2.285156 -0.0078125 2.292969 -0.523438 2.292969 -0.953125 L 1.121094 -0.953125 C 0.914062 -0.953125 0.722656 -0.929688 0.550781 -0.882812 L 0.335938 -1.097656 L 2.292969 -1.097656 L 2.292969 -2.269531 L 1.480469 -2.269531 C 1.273438 -2.269531 1.082031 -2.242188 0.90625 -2.195312 L 0.691406 -2.410156 L 2.292969 -2.410156 L 2.292969 -3.53125 L 1.265625 -3.53125 C 1.058594 -3.53125 0.867188 -3.507812 0.691406 -3.460938 L 0.476562 -3.675781 L 2.292969 -3.675781 C 2.292969 -3.882812 2.285156 -4.296875 2.269531 -4.917969 L 2.792969 -4.65625 L 2.625 -4.488281 C 2.625 -1.863281 2.632812 -0.230469 2.648438 0.40625 L 2.269531 0.597656 M 3.84375 -0.953125 C 3.84375 -0.285156 3.851562 0.152344 3.867188 0.359375 L 3.484375 0.550781 C 3.5 -0.230469 3.507812 -1.246094 3.507812 -2.496094 C 3.507812 -3.742188 3.5 -4.558594 3.484375 -4.941406 L 4.011719 -4.703125 L 3.84375 -4.535156 L 3.84375 -3.675781 L 4.988281 -3.675781 L 5.25 -3.960938 L 5.65625 -3.53125 L 3.84375 -3.53125 L 3.84375 -2.410156 L 4.917969 -2.410156 L 5.179688 -2.671875 L 5.539062 -2.269531 L 3.84375 -2.269531 L 3.84375 -1.097656 L 5.15625 -1.097656 L 5.464844 -1.382812 L 5.847656 -0.953125 Z "/>
</g>
<g id="glyph-0-9">
<path d="M 1.886719 -1.648438 L 1.886719 -2.769531 C 1.3125 -2.6875 0.972656 -2.601562 0.859375 -2.507812 L 0.644531 -2.9375 C 0.867188 -2.953125 1.097656 -3.109375 1.335938 -3.414062 C 1.574219 -3.714844 1.765625 -4.027344 1.910156 -4.34375 L 1.289062 -4.34375 C 1.082031 -4.34375 0.890625 -4.320312 0.714844 -4.273438 L 0.5 -4.488281 L 2.914062 -4.488281 L 3.222656 -4.796875 L 3.675781 -4.34375 L 2.003906 -4.34375 L 2.433594 -4.082031 C 2.242188 -4.019531 2.042969 -3.875 1.839844 -3.652344 C 1.613281 -3.414062 1.367188 -3.175781 1.097656 -2.9375 L 3.007812 -2.984375 C 2.863281 -3.207031 2.679688 -3.4375 2.457031 -3.675781 L 2.53125 -3.746094 C 3.199219 -3.285156 3.546875 -2.976562 3.582031 -2.816406 C 3.613281 -2.65625 3.589844 -2.539062 3.507812 -2.457031 C 3.429688 -2.378906 3.375 -2.339844 3.339844 -2.339844 C 3.308594 -2.339844 3.285156 -2.371094 3.269531 -2.433594 C 3.222656 -2.546875 3.152344 -2.6875 3.054688 -2.863281 C 2.707031 -2.832031 2.363281 -2.800781 2.027344 -2.769531 L 2.410156 -2.578125 L 2.21875 -2.410156 L 2.21875 -1.648438 L 2.863281 -1.648438 L 3.152344 -1.933594 L 3.582031 -1.503906 L 2.21875 -1.503906 L 2.21875 -0.359375 L 3.582031 -0.621094 L 3.605469 -0.5 C 1.789062 -0.0390625 0.8125 0.261719 0.667969 0.40625 L 0.40625 -0.0703125 C 0.675781 -0.101562 1.167969 -0.175781 1.886719 -0.285156 L 1.886719 -1.503906 L 0.980469 -1.503906 L 0.691406 -1.457031 L 0.5 -1.648438 L 1.886719 -1.648438 M 4.34375 -3.722656 L 4.34375 -1.503906 C 4.34375 -1.34375 4.351562 -1.128906 4.367188 -0.859375 L 4.011719 -0.714844 C 4.027344 -1.242188 4.035156 -1.835938 4.035156 -2.496094 C 4.035156 -3.15625 4.027344 -3.714844 4.011719 -4.175781 L 4.558594 -3.890625 L 4.34375 -3.722656 M 4.175781 0.0703125 L 4.175781 -0.046875 C 4.414062 -0.015625 4.640625 0 4.84375 0 C 4.957031 0 5.042969 -0.0117188 5.109375 -0.0351562 C 5.171875 -0.0585938 5.195312 -0.175781 5.179688 -0.382812 L 5.179688 -4.128906 C 5.179688 -4.367188 5.171875 -4.640625 5.15625 -4.941406 L 5.679688 -4.703125 L 5.488281 -4.535156 L 5.488281 -0.167969 C 5.507812 0.230469 5.332031 0.484375 4.964844 0.597656 C 4.933594 0.359375 4.671875 0.183594 4.175781 0.0703125 Z "/>
</g>
<g id="glyph-0-10">
<path d="M 3.484375 -3.316406 C 3.515625 -4.128906 3.523438 -4.679688 3.507812 -4.964844 L 4.058594 -4.703125 L 3.890625 -4.488281 C 3.875 -4.089844 3.859375 -3.699219 3.84375 -3.316406 L 5.035156 -3.316406 L 5.324219 -3.628906 L 5.753906 -3.175781 L 3.84375 -3.175781 C 3.8125 -2.871094 3.746094 -2.578125 3.652344 -2.292969 C 3.984375 -2.132812 4.304688 -1.941406 4.605469 -1.71875 C 4.910156 -1.496094 5.097656 -1.328125 5.167969 -1.21875 C 5.238281 -1.105469 5.273438 -1.003906 5.273438 -0.90625 C 5.273438 -0.84375 5.253906 -0.773438 5.214844 -0.691406 C 5.175781 -0.613281 5.140625 -0.574219 5.109375 -0.574219 C 5.058594 -0.574219 4.996094 -0.652344 4.917969 -0.8125 C 4.804688 -1.035156 4.628906 -1.277344 4.390625 -1.539062 C 4.152344 -1.800781 3.898438 -2.019531 3.628906 -2.195312 C 3.324219 -1.464844 2.746094 -0.898438 1.886719 -0.5 L 1.839844 -0.574219 C 2.839844 -1.175781 3.390625 -2.042969 3.484375 -3.175781 L 2.625 -3.175781 C 2.417969 -3.175781 2.226562 -3.152344 2.054688 -3.101562 L 1.839844 -3.316406 L 3.484375 -3.316406 M 0.90625 -4.84375 L 0.953125 -4.917969 C 1.226562 -4.773438 1.429688 -4.640625 1.5625 -4.511719 C 1.699219 -4.382812 1.761719 -4.261719 1.753906 -4.140625 C 1.746094 -4.023438 1.714844 -3.941406 1.660156 -3.902344 C 1.601562 -3.863281 1.558594 -3.84375 1.527344 -3.84375 C 1.449219 -3.84375 1.382812 -3.9375 1.335938 -4.128906 C 1.257812 -4.382812 1.113281 -4.621094 0.90625 -4.84375 M 1.503906 -0.789062 C 1.632812 -0.628906 1.820312 -0.46875 2.078125 -0.308594 C 2.332031 -0.152344 2.714844 -0.0625 3.222656 -0.046875 C 3.730469 -0.03125 4.195312 -0.0273438 4.617188 -0.0351562 C 5.039062 -0.0429688 5.457031 -0.0625 5.871094 -0.09375 L 5.871094 0 C 5.585938 0.0625 5.417969 0.191406 5.371094 0.382812 C 4.640625 0.367188 4.039062 0.351562 3.570312 0.335938 C 3.097656 0.316406 2.714844 0.25 2.410156 0.132812 C 2.109375 0.0117188 1.871094 -0.152344 1.695312 -0.359375 C 1.519531 -0.566406 1.410156 -0.679688 1.359375 -0.703125 C 1.3125 -0.726562 1.214844 -0.65625 1.0625 -0.488281 C 0.910156 -0.320312 0.757812 -0.101562 0.597656 0.167969 L 0.285156 -0.144531 C 0.558594 -0.351562 0.851562 -0.574219 1.167969 -0.8125 L 1.167969 -2.746094 L 1.003906 -2.746094 C 0.796875 -2.746094 0.605469 -2.722656 0.429688 -2.671875 L 0.214844 -2.886719 L 1.121094 -2.886719 L 1.382812 -3.152344 L 1.742188 -2.792969 L 1.503906 -2.648438 Z "/>
</g>
</g>
</defs>
<g fill="rgb(100%, 100%, 100%)" fill-opacity="1">
<use xlink:href="#glyph-0-0" x="30" y="25.250977"/>
<use xlink:href="#glyph-0-1" x="36" y="25.250977"/>
<use xlink:href="#glyph-0-2" x="42" y="25.250977"/>
<use xlink:href="#glyph-0-3" x="48" y="25.250977"/>
<use xlink:href="#glyph-0-4" x="54" y="25.250977"/>
<use xlink:href="#glyph-0-5" x="60" y="25.250977"/>
<use xlink:href="#glyph-0-6" x="66" y="25.250977"/>
<use xlink:href="#glyph-0-7" x="72" y="25.250977"/>
<use xlink:href="#glyph-0-8" x="78" y="25.250977"/>
<use xlink:href="#glyph-0-9" x="84" y="25.250977"/>
<use xlink:href="#glyph-0-10" x="90" y="25.250977"/>
</g>
</svg>
