<?xml version="1.0" encoding="UTF-8"?>
<svg xmlns="http://www.w3.org/2000/svg" xmlns:xlink="http://www.w3.org/1999/xlink" width="854" height="480" viewBox="0 0 854 480">
<defs>
<g>
<g id="glyph-0-0">
<path d="M 1.886719 -2.601562 C 1.886719 -1.027344 1.894531 -0.03125 1.910156 0.382812 L 1.527344 0.621094 C 1.542969 0.191406 1.550781 -0.738281 1.550781 -2.171875 C 1.25 -1.789062 0.828125 -1.417969 0.285156 -1.050781 L 0.214844 -1.121094 C 0.722656 -1.566406 1.167969 -2.070312 1.550781 -2.625 C 1.550781 -2.785156 1.542969 -2.929688 1.527344 -3.054688 L 1.765625 -2.9375 C 1.972656 -3.253906 2.171875 -3.628906 2.363281 -4.058594 L 0.980469 -4.058594 L 0.621094 -4.011719 L 0.429688 -4.199219 L 2.410156 -4.199219 C 2.539062 -4.503906 2.617188 -4.773438 2.648438 -5.011719 L 3.222656 -4.726562 C 3.09375 -4.664062 3.007812 -4.585938 2.960938 -4.5 C 2.914062 -4.410156 2.863281 -4.3125 2.816406 -4.199219 L 4.820312 -4.199219 L 5.179688 -4.558594 L 5.679688 -4.058594 L 2.769531 -4.058594 C 2.515625 -3.566406 2.21875 -3.078125 1.886719 -2.601562 M 2.914062 0 C 3.230469 0.03125 3.449219 0.046875 3.570312 0.046875 C 3.6875 0.046875 3.746094 -0.046875 3.746094 -0.238281 L 3.746094 -1.410156 L 2.699219 -1.410156 L 2.339844 -1.359375 L 2.148438 -1.550781 L 3.746094 -1.550781 C 3.746094 -1.964844 3.738281 -2.300781 3.722656 -2.554688 L 3.984375 -2.410156 L 4.65625 -3.101562 L 2.9375 -3.101562 L 2.601562 -3.054688 L 2.410156 -3.246094 L 4.679688 -3.246094 L 4.917969 -3.484375 L 5.324219 -3.03125 C 5.101562 -3 4.890625 -2.917969 4.691406 -2.78125 C 4.492188 -2.644531 4.289062 -2.5 4.082031 -2.339844 L 4.273438 -2.21875 L 4.082031 -2.078125 L 4.082031 -1.550781 L 5.085938 -1.550781 L 5.394531 -1.863281 L 5.847656 -1.410156 L 4.082031 -1.410156 L 4.082031 0.046875 C 4.082031 0.269531 3.914062 0.453125 3.582031 0.597656 C 3.566406 0.40625 3.339844 0.246094 2.914062 0.121094 Z "/>
</g>
<g id="glyph-0-1">
<path d="M 1.265625 -2.292969 C 1.265625 -2.339844 1.257812 -2.457031 1.242188 -2.648438 L 1.480469 -2.554688 C 1.75 -2.886719 2.011719 -3.300781 2.269531 -3.796875 L 1.21875 -3.796875 C 1.011719 -3.796875 0.820312 -3.769531 0.644531 -3.722656 L 0.429688 -3.9375 L 2.316406 -3.9375 C 2.492188 -4.367188 2.601562 -4.726562 2.648438 -5.011719 L 3.199219 -4.726562 L 2.960938 -4.582031 C 2.914062 -4.441406 2.816406 -4.226562 2.671875 -3.9375 L 4.773438 -3.9375 L 5.132812 -4.296875 L 5.632812 -3.796875 L 2.625 -3.796875 C 2.292969 -3.144531 1.957031 -2.640625 1.625 -2.292969 L 1.625 0.359375 L 1.265625 0.550781 C 1.28125 0.292969 1.289062 0.0625 1.289062 -0.144531 L 1.289062 -1.957031 C 0.921875 -1.625 0.582031 -1.359375 0.261719 -1.167969 L 0.214844 -1.242188 C 0.691406 -1.65625 1.042969 -2.003906 1.265625 -2.292969 M 3.4375 -3.007812 C 3.4375 -3.117188 3.429688 -3.316406 3.414062 -3.605469 L 3.960938 -3.367188 L 3.769531 -3.199219 L 3.769531 -2.21875 L 4.679688 -2.21875 L 4.988281 -2.53125 L 5.441406 -2.078125 L 3.769531 -2.078125 L 3.769531 -0.167969 L 4.964844 -0.167969 L 5.300781 -0.5 L 5.777344 -0.0234375 L 2.53125 -0.0234375 C 2.324219 -0.0234375 2.132812 0 1.957031 0.046875 L 1.742188 -0.167969 L 3.4375 -0.167969 L 3.4375 -2.078125 L 2.839844 -2.078125 C 2.632812 -2.078125 2.441406 -2.054688 2.269531 -2.003906 L 2.054688 -2.21875 L 3.4375 -2.21875 Z "/>
</g>
<g id="glyph-0-2">
<path d="M 1.527344 -2.601562 C 1.527344 -2.714844 1.519531 -2.902344 1.503906 -3.175781 L 2.101562 -2.886719 L 1.863281 -2.722656 L 1.863281 -0.0234375 L 3.054688 -0.0234375 L 3.054688 -4.296875 L 1.597656 -4.296875 C 1.390625 -4.296875 1.203125 -4.273438 1.027344 -4.226562 L 0.8125 -4.441406 L 4.84375 -4.441406 L 5.203125 -4.796875 L 5.703125 -4.296875 L 3.390625 -4.296875 L 3.390625 -2.410156 L 4.558594 -2.410156 L 4.894531 -2.746094 L 5.371094 -2.269531 L 3.390625 -2.269531 L 3.390625 -0.0234375 L 4.84375 -0.0234375 L 5.226562 -0.40625 L 5.753906 0.121094 L 1.144531 0.121094 C 0.9375 0.121094 0.746094 0.144531 0.574219 0.191406 L 0.359375 -0.0234375 L 1.527344 -0.0234375 Z "/>
</g>
<g id="glyph-0-3">
<path d="M 1.789062 -1.457031 C 1.664062 -1.25 1.542969 -1.050781 1.433594 -0.859375 C 1.640625 -0.8125 1.886719 -0.757812 2.171875 -0.691406 C 2.316406 -0.851562 2.457031 -1.105469 2.601562 -1.457031 L 1.789062 -1.457031 M 0.8125 -4.679688 C 1.113281 -4.488281 1.296875 -4.34375 1.359375 -4.25 C 1.425781 -4.152344 1.457031 -4.082031 1.457031 -4.035156 C 1.457031 -3.953125 1.429688 -3.875 1.371094 -3.796875 C 1.316406 -3.714844 1.273438 -3.675781 1.242188 -3.675781 C 1.195312 -3.675781 1.144531 -3.753906 1.097656 -3.914062 C 1.035156 -4.136719 0.914062 -4.375 0.738281 -4.628906 L 0.8125 -4.679688 M 2.863281 -4.75 L 3.292969 -4.464844 C 3.167969 -4.433594 3.054688 -4.351562 2.960938 -4.226562 C 2.847656 -4.097656 2.664062 -3.90625 2.410156 -3.652344 L 2.339844 -3.699219 C 2.640625 -4.175781 2.816406 -4.527344 2.863281 -4.75 M 1.789062 -5.011719 L 2.316406 -4.773438 L 2.125 -4.605469 L 2.125 -3.507812 L 2.722656 -3.507812 L 2.984375 -3.769531 L 3.390625 -3.367188 L 2.125 -3.367188 L 2.125 -3.152344 C 2.492188 -3.070312 2.71875 -2.996094 2.804688 -2.925781 C 2.890625 -2.851562 2.9375 -2.761719 2.9375 -2.648438 C 2.9375 -2.601562 2.929688 -2.542969 2.914062 -2.46875 C 2.894531 -2.398438 2.871094 -2.363281 2.839844 -2.363281 C 2.808594 -2.363281 2.753906 -2.417969 2.671875 -2.53125 C 2.546875 -2.707031 2.363281 -2.871094 2.125 -3.03125 L 2.125 -2.292969 L 1.839844 -2.101562 L 2.171875 -1.957031 C 2.09375 -1.925781 1.988281 -1.804688 1.863281 -1.597656 L 2.601562 -1.597656 L 2.769531 -1.8125 L 3.125 -1.503906 L 2.914062 -1.382812 C 2.753906 -1.019531 2.609375 -0.765625 2.484375 -0.621094 C 2.738281 -0.558594 2.90625 -0.488281 2.996094 -0.417969 C 3.082031 -0.347656 3.125 -0.253906 3.125 -0.144531 C 3.125 -0.03125 3.101562 0.0234375 3.054688 0.0234375 C 3.007812 0.0234375 2.953125 -0.0078125 2.886719 -0.0703125 C 2.714844 -0.199219 2.515625 -0.308594 2.292969 -0.40625 C 1.734375 0.0390625 1.074219 0.335938 0.308594 0.476562 L 0.285156 0.40625 C 1.019531 0.167969 1.589844 -0.144531 2.003906 -0.523438 C 1.6875 -0.636719 1.375 -0.714844 1.074219 -0.765625 C 1.136719 -0.859375 1.265625 -1.089844 1.457031 -1.457031 L 1.144531 -1.457031 C 0.9375 -1.457031 0.746094 -1.433594 0.574219 -1.382812 L 0.359375 -1.597656 L 1.503906 -1.597656 C 1.566406 -1.757812 1.632812 -1.949219 1.695312 -2.171875 L 1.8125 -2.125 L 1.8125 -3.101562 C 1.382812 -2.609375 0.890625 -2.226562 0.335938 -1.957031 L 0.285156 -2.027344 C 0.875 -2.441406 1.320312 -2.886719 1.625 -3.367188 L 1.195312 -3.367188 C 0.988281 -3.367188 0.796875 -3.339844 0.621094 -3.292969 L 0.40625 -3.507812 L 1.8125 -3.507812 C 1.8125 -4.082031 1.804688 -4.582031 1.789062 -5.011719 M 3.746094 -3.367188 C 3.828125 -2.441406 4.019531 -1.671875 4.320312 -1.050781 C 4.574219 -1.589844 4.734375 -2.363281 4.796875 -3.367188 L 3.746094 -3.367188 M 3.867188 -5.011719 L 4.414062 -4.703125 C 4.289062 -4.65625 4.191406 -4.558594 4.128906 -4.414062 C 4.066406 -4.273438 3.945312 -3.96875 3.769531 -3.507812 L 5.132812 -3.507812 L 5.417969 -3.796875 L 5.847656 -3.367188 L 5.15625 -3.367188 C 5.058594 -2.1875 4.855469 -1.3125 4.535156 -0.738281 C 4.902344 -0.292969 5.332031 -0.015625 5.824219 0.09375 L 5.824219 0.191406 C 5.523438 0.238281 5.363281 0.335938 5.347656 0.476562 C 4.933594 0.191406 4.589844 -0.136719 4.320312 -0.5 C 3.796875 0.0078125 3.167969 0.382812 2.433594 0.621094 L 2.386719 0.550781 C 3.117188 0.214844 3.699219 -0.222656 4.128906 -0.765625 C 3.828125 -1.511719 3.667969 -2.332031 3.652344 -3.222656 C 3.492188 -2.808594 3.261719 -2.417969 2.960938 -2.054688 L 2.886719 -2.101562 C 3.269531 -2.738281 3.597656 -3.707031 3.867188 -5.011719 Z "/>
</g>
<g id="glyph-1-0">
</g>
<g id="glyph-1-1">
<path d="M 3.039062 -1.730469 C 3.117188 -1.652344 3.179688 -1.5625 3.222656 -1.460938 C 3.269531 -1.355469 3.292969 -1.230469 3.292969 -1.089844 C 3.292969 -0.777344 3.171875 -0.515625 2.933594 -0.304688 C 2.695312 -0.0898438 2.394531 0.0273438 2.03125 0.0507812 L 2.03125 0.890625 L 1.789062 0.890625 L 1.789062 0.0585938 C 1.394531 0.046875 1.074219 -0.046875 0.828125 -0.226562 C 0.585938 -0.40625 0.460938 -0.628906 0.460938 -0.894531 C 0.460938 -1.011719 0.488281 -1.101562 0.539062 -1.164062 C 0.589844 -1.226562 0.664062 -1.257812 0.757812 -1.257812 C 0.863281 -1.257812 0.945312 -1.234375 1.003906 -1.179688 C 1.066406 -1.128906 1.09375 -1.066406 1.09375 -0.992188 C 1.09375 -0.941406 1.074219 -0.859375 1.039062 -0.75 C 1 -0.640625 0.976562 -0.566406 0.964844 -0.527344 C 1.023438 -0.425781 1.125 -0.339844 1.265625 -0.277344 C 1.410156 -0.214844 1.582031 -0.179688 1.789062 -0.179688 L 1.789062 -1.6875 C 1.699219 -1.71875 1.625 -1.75 1.558594 -1.773438 C 1.496094 -1.796875 1.410156 -1.828125 1.304688 -1.875 C 1.074219 -1.96875 0.894531 -2.089844 0.765625 -2.242188 C 0.636719 -2.394531 0.574219 -2.59375 0.574219 -2.835938 C 0.574219 -3.121094 0.691406 -3.363281 0.929688 -3.558594 C 1.167969 -3.757812 1.453125 -3.859375 1.789062 -3.863281 L 1.789062 -4.546875 L 2.03125 -4.546875 L 2.03125 -3.863281 C 2.230469 -3.859375 2.402344 -3.832031 2.554688 -3.777344 C 2.707031 -3.722656 2.828125 -3.65625 2.925781 -3.578125 C 3.019531 -3.496094 3.089844 -3.410156 3.140625 -3.316406 C 3.1875 -3.21875 3.214844 -3.125 3.214844 -3.039062 C 3.214844 -2.949219 3.191406 -2.871094 3.152344 -2.808594 C 3.109375 -2.746094 3.039062 -2.714844 2.945312 -2.714844 C 2.847656 -2.714844 2.765625 -2.738281 2.703125 -2.789062 C 2.636719 -2.839844 2.605469 -2.894531 2.605469 -2.957031 C 2.605469 -3.03125 2.613281 -3.105469 2.628906 -3.175781 C 2.644531 -3.25 2.660156 -3.3125 2.671875 -3.367188 C 2.664062 -3.378906 2.644531 -3.402344 2.609375 -3.433594 C 2.578125 -3.464844 2.539062 -3.492188 2.492188 -3.519531 C 2.441406 -3.546875 2.375 -3.570312 2.292969 -3.59375 C 2.214844 -3.613281 2.125 -3.625 2.03125 -3.625 L 2.03125 -2.242188 C 2.109375 -2.214844 2.175781 -2.1875 2.226562 -2.167969 C 2.28125 -2.148438 2.34375 -2.121094 2.421875 -2.089844 C 2.546875 -2.042969 2.660156 -1.992188 2.761719 -1.933594 C 2.867188 -1.878906 2.957031 -1.808594 3.039062 -1.730469 M 1.789062 -2.3125 L 1.789062 -3.625 C 1.59375 -3.625 1.433594 -3.570312 1.300781 -3.460938 C 1.167969 -3.351562 1.105469 -3.21875 1.105469 -3.058594 C 1.105469 -2.886719 1.144531 -2.746094 1.226562 -2.644531 C 1.308594 -2.539062 1.429688 -2.453125 1.597656 -2.386719 C 1.621094 -2.378906 1.648438 -2.363281 1.6875 -2.351562 C 1.722656 -2.335938 1.753906 -2.324219 1.789062 -2.3125 M 2.730469 -0.847656 C 2.730469 -1.011719 2.6875 -1.152344 2.601562 -1.273438 C 2.519531 -1.394531 2.375 -1.492188 2.171875 -1.574219 C 2.144531 -1.582031 2.121094 -1.589844 2.097656 -1.597656 C 2.078125 -1.605469 2.054688 -1.613281 2.03125 -1.625 L 2.03125 -0.183594 C 2.265625 -0.195312 2.4375 -0.261719 2.554688 -0.378906 C 2.671875 -0.5 2.730469 -0.65625 2.730469 -0.847656 Z "/>
</g>
<g id="glyph-1-2">
<path d="M 2.71875 1.265625 L 2.328125 1.265625 L 0.269531 -4.542969 L 0.660156 -4.542969 Z "/>
</g>
<g id="glyph-1-3">
<path d="M 3.4375 -0.0546875 L 2.40625 0.0117188 L 2.363281 -0.03125 L 2.363281 -0.304688 L 2.339844 -0.308594 C 2.234375 -0.195312 2.109375 -0.101562 1.957031 -0.0273438 C 1.804688 0.046875 1.648438 0.0820312 1.488281 0.0820312 C 1.320312 0.0820312 1.160156 0.046875 1.003906 -0.0273438 C 0.847656 -0.101562 0.710938 -0.207031 0.597656 -0.34375 C 0.480469 -0.480469 0.386719 -0.644531 0.316406 -0.839844 C 0.25 -1.03125 0.214844 -1.246094 0.214844 -1.476562 C 0.214844 -1.691406 0.25 -1.890625 0.324219 -2.082031 C 0.398438 -2.273438 0.5 -2.441406 0.628906 -2.582031 C 0.75 -2.71875 0.898438 -2.824219 1.074219 -2.902344 C 1.25 -2.984375 1.429688 -3.023438 1.613281 -3.023438 C 1.75 -3.023438 1.882812 -3.003906 2.015625 -2.96875 C 2.148438 -2.933594 2.261719 -2.890625 2.355469 -2.835938 L 2.355469 -3.863281 C 2.355469 -3.945312 2.34375 -4.023438 2.316406 -4.089844 C 2.289062 -4.160156 2.25 -4.210938 2.199219 -4.25 C 2.144531 -4.285156 2.066406 -4.3125 1.972656 -4.332031 C 1.878906 -4.347656 1.777344 -4.359375 1.667969 -4.367188 L 1.667969 -4.554688 L 2.875 -4.617188 L 2.917969 -4.574219 L 2.917969 -0.609375 C 2.917969 -0.539062 2.929688 -0.480469 2.957031 -0.429688 C 2.984375 -0.382812 3.023438 -0.339844 3.078125 -0.308594 C 3.113281 -0.285156 3.167969 -0.269531 3.242188 -0.261719 C 3.3125 -0.257812 3.378906 -0.253906 3.4375 -0.25 L 3.4375 -0.0546875 M 2.355469 -0.570312 L 2.355469 -2.292969 C 2.339844 -2.34375 2.316406 -2.398438 2.28125 -2.457031 C 2.242188 -2.519531 2.199219 -2.574219 2.144531 -2.621094 C 2.089844 -2.671875 2.019531 -2.714844 1.941406 -2.746094 C 1.867188 -2.78125 1.777344 -2.796875 1.671875 -2.796875 C 1.554688 -2.796875 1.445312 -2.765625 1.34375 -2.703125 C 1.242188 -2.640625 1.152344 -2.554688 1.078125 -2.4375 C 1.003906 -2.328125 0.945312 -2.183594 0.902344 -2.011719 C 0.859375 -1.839844 0.839844 -1.648438 0.839844 -1.441406 C 0.839844 -1.273438 0.855469 -1.121094 0.886719 -0.984375 C 0.917969 -0.851562 0.972656 -0.722656 1.046875 -0.605469 C 1.117188 -0.496094 1.207031 -0.40625 1.3125 -0.335938 C 1.421875 -0.269531 1.550781 -0.234375 1.699219 -0.234375 C 1.859375 -0.234375 1.988281 -0.269531 2.09375 -0.339844 C 2.199219 -0.410156 2.285156 -0.488281 2.355469 -0.570312 Z "/>
</g>
<g id="glyph-1-4">
<path d="M 2.828125 -0.691406 C 2.707031 -0.457031 2.539062 -0.269531 2.332031 -0.132812 C 2.125 0.0078125 1.890625 0.078125 1.621094 0.078125 C 1.382812 0.078125 1.175781 0.0351562 1 -0.046875 C 0.820312 -0.132812 0.671875 -0.246094 0.558594 -0.386719 C 0.441406 -0.53125 0.355469 -0.699219 0.300781 -0.890625 C 0.242188 -1.082031 0.214844 -1.28125 0.214844 -1.496094 C 0.214844 -1.6875 0.246094 -1.875 0.304688 -2.058594 C 0.367188 -2.242188 0.457031 -2.40625 0.574219 -2.554688 C 0.6875 -2.695312 0.828125 -2.808594 0.996094 -2.894531 C 1.164062 -2.980469 1.351562 -3.027344 1.558594 -3.027344 C 1.773438 -3.027344 1.960938 -2.992188 2.113281 -2.925781 C 2.265625 -2.855469 2.390625 -2.765625 2.484375 -2.648438 C 2.578125 -2.535156 2.644531 -2.402344 2.691406 -2.253906 C 2.734375 -2.101562 2.757812 -1.9375 2.757812 -1.761719 L 2.757812 -1.5625 L 0.808594 -1.5625 C 0.808594 -1.371094 0.828125 -1.195312 0.863281 -1.039062 C 0.902344 -0.878906 0.957031 -0.742188 1.039062 -0.621094 C 1.117188 -0.503906 1.21875 -0.414062 1.34375 -0.347656 C 1.46875 -0.28125 1.617188 -0.246094 1.789062 -0.246094 C 1.96875 -0.246094 2.121094 -0.289062 2.25 -0.371094 C 2.375 -0.457031 2.5 -0.605469 2.621094 -0.820312 L 2.828125 -0.691406 M 2.167969 -1.8125 C 2.167969 -1.925781 2.160156 -2.042969 2.140625 -2.171875 C 2.121094 -2.296875 2.089844 -2.402344 2.050781 -2.488281 C 2.003906 -2.582031 1.941406 -2.65625 1.863281 -2.710938 C 1.78125 -2.769531 1.679688 -2.796875 1.554688 -2.796875 C 1.34375 -2.796875 1.171875 -2.710938 1.035156 -2.539062 C 0.894531 -2.363281 0.820312 -2.125 0.808594 -1.8125 Z "/>
</g>
<g id="glyph-1-5">
<path d="M 1.59375 0 L 0.15625 0 L 0.15625 -0.195312 C 0.203125 -0.199219 0.253906 -0.207031 0.304688 -0.210938 C 0.355469 -0.214844 0.398438 -0.222656 0.433594 -0.234375 C 0.488281 -0.25 0.53125 -0.28125 0.558594 -0.328125 C 0.585938 -0.371094 0.601562 -0.429688 0.601562 -0.5 L 0.601562 -3.910156 C 0.601562 -3.984375 0.585938 -4.050781 0.554688 -4.113281 C 0.523438 -4.175781 0.480469 -4.226562 0.433594 -4.261719 C 0.398438 -4.285156 0.332031 -4.304688 0.234375 -4.328125 C 0.140625 -4.347656 0.0625 -4.359375 0.0078125 -4.363281 L 0.0078125 -4.554688 L 1.113281 -4.617188 L 1.15625 -4.574219 L 1.15625 -0.535156 C 1.15625 -0.46875 1.167969 -0.410156 1.195312 -0.367188 C 1.21875 -0.320312 1.261719 -0.285156 1.320312 -0.261719 C 1.363281 -0.242188 1.40625 -0.226562 1.449219 -0.21875 C 1.492188 -0.207031 1.539062 -0.199219 1.59375 -0.195312 Z "/>
</g>
<g id="glyph-1-6">
<path d="M 2.03125 -0.128906 C 1.902344 -0.0742188 1.78125 -0.03125 1.664062 0.0078125 C 1.550781 0.0429688 1.410156 0.0625 1.242188 0.0625 C 0.996094 0.0625 0.820312 0 0.71875 -0.125 C 0.621094 -0.25 0.570312 -0.421875 0.570312 -0.652344 L 0.570312 -2.644531 L 0.0390625 -2.644531 L 0.0390625 -2.929688 L 0.582031 -2.929688 L 0.582031 -3.847656 L 1.125 -3.847656 L 1.125 -2.929688 L 1.96875 -2.929688 L 1.96875 -2.644531 L 1.128906 -2.644531 L 1.128906 -1 C 1.128906 -0.875 1.136719 -0.773438 1.144531 -0.691406 C 1.152344 -0.609375 1.175781 -0.535156 1.207031 -0.472656 C 1.242188 -0.417969 1.289062 -0.371094 1.351562 -0.34375 C 1.414062 -0.3125 1.5 -0.296875 1.609375 -0.296875 C 1.65625 -0.296875 1.730469 -0.304688 1.828125 -0.3125 C 1.925781 -0.320312 1.992188 -0.332031 2.03125 -0.347656 Z "/>
</g>
<g id="glyph-1-7">
<path d="M 3 -0.0546875 C 2.90625 -0.0195312 2.824219 0.0078125 2.753906 0.0273438 C 2.683594 0.0507812 2.605469 0.0585938 2.515625 0.0585938 C 2.359375 0.0585938 2.234375 0.0234375 2.144531 -0.0507812 C 2.050781 -0.121094 1.992188 -0.226562 1.964844 -0.367188 L 1.949219 -0.367188 C 1.820312 -0.222656 1.679688 -0.113281 1.53125 -0.0390625 C 1.382812 0.0351562 1.207031 0.0742188 0.996094 0.0742188 C 0.777344 0.0742188 0.59375 0.0078125 0.453125 -0.128906 C 0.308594 -0.261719 0.238281 -0.441406 0.238281 -0.660156 C 0.238281 -0.773438 0.253906 -0.875 0.285156 -0.964844 C 0.316406 -1.054688 0.367188 -1.132812 0.429688 -1.207031 C 0.480469 -1.265625 0.546875 -1.316406 0.625 -1.363281 C 0.707031 -1.410156 0.785156 -1.449219 0.855469 -1.476562 C 0.945312 -1.511719 1.128906 -1.574219 1.402344 -1.664062 C 1.675781 -1.757812 1.859375 -1.828125 1.953125 -1.878906 L 1.953125 -2.175781 C 1.953125 -2.199219 1.949219 -2.25 1.9375 -2.324219 C 1.925781 -2.398438 1.902344 -2.46875 1.867188 -2.53125 C 1.828125 -2.605469 1.773438 -2.671875 1.699219 -2.726562 C 1.625 -2.78125 1.523438 -2.808594 1.390625 -2.808594 C 1.300781 -2.808594 1.214844 -2.792969 1.136719 -2.761719 C 1.058594 -2.730469 1 -2.699219 0.96875 -2.664062 C 0.96875 -2.625 0.980469 -2.566406 1 -2.488281 C 1.015625 -2.410156 1.027344 -2.339844 1.027344 -2.273438 C 1.027344 -2.203125 0.996094 -2.140625 0.933594 -2.082031 C 0.871094 -2.023438 0.78125 -1.996094 0.671875 -1.996094 C 0.570312 -1.996094 0.5 -2.03125 0.453125 -2.101562 C 0.40625 -2.171875 0.382812 -2.25 0.382812 -2.339844 C 0.382812 -2.429688 0.414062 -2.519531 0.480469 -2.601562 C 0.542969 -2.683594 0.628906 -2.761719 0.730469 -2.824219 C 0.820312 -2.882812 0.929688 -2.929688 1.054688 -2.96875 C 1.183594 -3.007812 1.308594 -3.027344 1.429688 -3.027344 C 1.597656 -3.027344 1.742188 -3.015625 1.867188 -2.992188 C 1.992188 -2.96875 2.105469 -2.917969 2.203125 -2.84375 C 2.304688 -2.769531 2.382812 -2.671875 2.4375 -2.542969 C 2.488281 -2.417969 2.515625 -2.253906 2.515625 -2.054688 C 2.515625 -1.769531 2.511719 -1.519531 2.507812 -1.300781 C 2.5 -1.078125 2.496094 -0.839844 2.496094 -0.578125 C 2.496094 -0.5 2.511719 -0.441406 2.539062 -0.394531 C 2.566406 -0.347656 2.605469 -0.308594 2.660156 -0.277344 C 2.691406 -0.257812 2.738281 -0.25 2.804688 -0.246094 C 2.867188 -0.246094 2.933594 -0.246094 3 -0.246094 L 3 -0.0546875 M 1.960938 -1.628906 C 1.792969 -1.578125 1.644531 -1.53125 1.515625 -1.484375 C 1.386719 -1.433594 1.269531 -1.375 1.160156 -1.304688 C 1.0625 -1.234375 0.984375 -1.15625 0.925781 -1.0625 C 0.867188 -0.96875 0.839844 -0.859375 0.839844 -0.730469 C 0.839844 -0.566406 0.882812 -0.445312 0.96875 -0.367188 C 1.054688 -0.289062 1.164062 -0.25 1.296875 -0.25 C 1.4375 -0.25 1.5625 -0.285156 1.671875 -0.355469 C 1.777344 -0.421875 1.867188 -0.503906 1.941406 -0.597656 Z "/>
</g>
</g>
</defs>
<g fill="rgb(100%, 100%, 100%)" fill-opacity="1">
<use xlink:href="#glyph-0-0" x="30" y="26"/>
<use xlink:href="#glyph-0-1" x="36" y="26"/>
<use xlink:href="#glyph-0-2" x="42" y="26"/>
<use xlink:href="#glyph-0-3" x="48" y="26"/>
</g>
<g fill="rgb(100%, 100%, 100%)" fill-opacity="1">
<use xlink:href="#glyph-1-0" x="54" y="25.603516"/>
<use xlink:href="#glyph-1-1" x="55" y="25.603516"/>
<use xlink:href="#glyph-1-2" x="59" y="25.603516"/>
</g>
<g fill="rgb(100%, 100%, 100%)" fill-opacity="1">
<use xlink:href="#glyph-1-3" x="62" y="25.603516"/>
<use xlink:href="#glyph-1-4" x="66" y="25.603516"/>
<use xlink:href="#glyph-1-5" x="69" y="25.603516"/>
<use xlink:href="#glyph-1-6" x="71" y="25.603516"/>
<use xlink:href="#glyph-1-7" x="73" y="25.603516"/>
<use xlink:href="#glyph-1-1" x="76" y="25.603516"/>
</g>
</svg>
