<?xml version="1.0" encoding="UTF-8"?>
<svg xmlns="http://www.w3.org/2000/svg" xmlns:xlink="http://www.w3.org/1999/xlink" width="854" height="480" viewBox="0 0 854 480">
<defs>
<g>
<g id="glyph-0-0">
<path d="M 3.039062 -1.730469 C 3.117188 -1.652344 3.179688 -1.5625 3.222656 -1.460938 C 3.269531 -1.355469 3.292969 -1.230469 3.292969 -1.089844 C 3.292969 -0.777344 3.171875 -0.515625 2.933594 -0.304688 C 2.695312 -0.0898438 2.394531 0.0273438 2.03125 0.0507812 L 2.03125 0.890625 L 1.789062 0.890625 L 1.789062 0.0585938 C 1.394531 0.046875 1.074219 -0.046875 0.828125 -0.226562 C 0.585938 -0.40625 0.460938 -0.628906 0.460938 -0.894531 C 0.460938 -1.011719 0.488281 -1.101562 0.539062 -1.164062 C 0.589844 -1.226562 0.664062 -1.257812 0.757812 -1.257812 C 0.863281 -1.257812 0.945312 -1.234375 1.003906 -1.179688 C 1.066406 -1.128906 1.09375 -1.066406 1.09375 -0.992188 C 1.09375 -0.941406 1.074219 -0.859375 1.039062 -0.75 C 1 -0.640625 0.976562 -0.566406 0.964844 -0.527344 C 1.023438 -0.425781 1.125 -0.339844 1.265625 -0.277344 C 1.410156 -0.214844 1.582031 -0.179688 1.789062 -0.179688 L 1.789062 -1.6875 C 1.699219 -1.71875 1.625 -1.75 1.558594 -1.773438 C 1.496094 -1.796875 1.410156 -1.828125 1.304688 -1.875 C 1.074219 -1.96875 0.894531 -2.089844 0.765625 -2.242188 C 0.636719 -2.394531 0.574219 -2.59375 0.574219 -2.835938 C 0.574219 -3.121094 0.691406 -3.363281 0.929688 -3.558594 C 1.167969 -3.757812 1.453125 -3.859375 1.789062 -3.863281 L 1.789062 -4.546875 L 2.03125 -4.546875 L 2.03125 -3.863281 C 2.230469 -3.859375 2.402344 -3.832031 2.554688 -3.777344 C 2.707031 -3.722656 2.828125 -3.65625 2.925781 -3.578125 C 3.019531 -3.496094 3.089844 -3.410156 3.140625 -3.316406 C 3.1875 -3.21875 3.214844 -3.125 3.214844 -3.039062 C 3.214844 -2.949219 3.191406 -2.871094 3.152344 -2.808594 C 3.109375 -2.746094 3.039062 -2.714844 2.945312 -2.714844 C 2.847656 -2.714844 2.765625 -2.738281 2.703125 -2.789062 C 2.636719 -2.839844 2.605469 -2.894531 2.605469 -2.957031 C 2.605469 -3.03125 2.613281 -3.105469 2.628906 -3.175781 C 2.644531 -3.25 2.660156 -3.3125 2.671875 -3.367188 C 2.664062 -3.378906 2.644531 -3.402344 2.609375 -3.433594 C 2.578125 -3.464844 2.539062 -3.492188 2.492188 -3.519531 C 2.441406 -3.546875 2.375 -3.570312 2.292969 -3.59375 C 2.214844 -3.613281 2.125 -3.625 2.03125 -3.625 L 2.03125 -2.242188 C 2.109375 -2.214844 2.175781 -2.1875 2.226562 -2.167969 C 2.28125 -2.148438 2.34375 -2.121094 2.421875 -2.089844 C 2.546875 -2.042969 2.660156 -1.992188 2.761719 -1.933594 C 2.867188 -1.878906 2.957031 -1.808594 3.039062 -1.730469 M 1.789062 -2.3125 L 1.789062 -3.625 C 1.59375 -3.625 1.433594 -3.570312 1.300781 -3.460938 C 1.167969 -3.351562 1.105469 -3.21875 1.105469 -3.058594 C 1.105469 -2.886719 1.144531 -2.746094 1.226562 -2.644531 C 1.308594 -2.539062 1.429688 -2.453125 1.597656 -2.386719 C 1.621094 -2.378906 1.648438 -2.363281 1.6875 -2.351562 C 1.722656 -2.335938 1.753906 -2.324219 1.789062 -2.3125 M 2.730469 -0.847656 C 2.730469 -1.011719 2.6875 -1.152344 2.601562 -1.273438 C 2.519531 -1.394531 2.375 -1.492188 2.171875 -1.574219 C 2.144531 -1.582031 2.121094 -1.589844 2.097656 -1.597656 C 2.078125 -1.605469 2.054688 -1.613281 2.03125 -1.625 L 2.03125 -0.183594 C 2.265625 -0.195312 2.4375 -0.261719 2.554688 -0.378906 C 2.671875 -0.5 2.730469 -0.65625 2.730469 -0.847656 Z "/>
</g>
<g id="glyph-0-1">
<path d="M 2.71875 1.265625 L 2.328125 1.265625 L 0.269531 -4.542969 L 0.660156 -4.542969 Z "/>
</g>
<g id="glyph-0-2">
<path d="M 2.828125 -0.691406 C 2.707031 -0.457031 2.539062 -0.269531 2.332031 -0.132812 C 2.125 0.0078125 1.890625 0.078125 1.621094 0.078125 C 1.382812 0.078125 1.175781 0.0351562 1 -0.046875 C 0.820312 -0.132812 0.671875 -0.246094 0.558594 -0.386719 C 0.441406 -0.53125 0.355469 -0.699219 0.300781 -0.890625 C 0.242188 -1.082031 0.214844 -1.28125 0.214844 -1.496094 C 0.214844 -1.6875 0.246094 -1.875 0.304688 -2.058594 C 0.367188 -2.242188 0.457031 -2.40625 0.574219 -2.554688 C 0.6875 -2.695312 0.828125 -2.808594 0.996094 -2.894531 C 1.164062 -2.980469 1.351562 -3.027344 1.558594 -3.027344 C 1.773438 -3.027344 1.960938 -2.992188 2.113281 -2.925781 C 2.265625 -2.855469 2.390625 -2.765625 2.484375 -2.648438 C 2.578125 -2.535156 2.644531 -2.402344 2.691406 -2.253906 C 2.734375 -2.101562 2.757812 -1.9375 2.757812 -1.761719 L 2.757812 -1.5625 L 0.808594 -1.5625 C 0.808594 -1.371094 0.828125 -1.195312 0.863281 -1.039062 C 0.902344 -0.878906 0.957031 -0.742188 1.039062 -0.621094 C 1.117188 -0.503906 1.21875 -0.414062 1.34375 -0.347656 C 1.46875 -0.28125 1.617188 -0.246094 1.789062 -0.246094 C 1.96875 -0.246094 2.121094 -0.289062 2.25 -0.371094 C 2.375 -0.457031 2.5 -0.605469 2.621094 -0.820312 L 2.828125 -0.691406 M 2.167969 -1.8125 C 2.167969 -1.925781 2.160156 -2.042969 2.140625 -2.171875 C 2.121094 -2.296875 2.089844 -2.402344 2.050781 -2.488281 C 2.003906 -2.582031 1.941406 -2.65625 1.863281 -2.710938 C 1.78125 -2.769531 1.679688 -2.796875 1.554688 -2.796875 C 1.34375 -2.796875 1.171875 -2.710938 1.035156 -2.539062 C 0.894531 -2.363281 0.820312 -2.125 0.808594 -1.8125 Z "/>
</g>
<g id="glyph-0-3">
<path d="M 2.902344 -2.59375 C 3.019531 -2.453125 3.113281 -2.292969 3.175781 -2.109375 C 3.242188 -1.925781 3.273438 -1.714844 3.273438 -1.476562 C 3.273438 -1.246094 3.234375 -1.03125 3.15625 -0.839844 C 3.078125 -0.648438 2.976562 -0.484375 2.847656 -0.347656 C 2.714844 -0.210938 2.566406 -0.105469 2.40625 -0.03125 C 2.242188 0.0390625 2.070312 0.078125 1.886719 0.078125 C 1.707031 0.078125 1.5625 0.0585938 1.449219 0.0195312 C 1.335938 -0.0234375 1.246094 -0.0703125 1.171875 -0.121094 L 1.148438 -0.121094 L 1.148438 0.761719 C 1.148438 0.835938 1.164062 0.894531 1.191406 0.941406 C 1.21875 0.992188 1.261719 1.023438 1.320312 1.046875 C 1.367188 1.066406 1.433594 1.082031 1.523438 1.097656 C 1.613281 1.117188 1.683594 1.125 1.742188 1.128906 L 1.742188 1.324219 L 0.0976562 1.324219 L 0.0976562 1.128906 C 0.160156 1.125 0.21875 1.117188 0.277344 1.113281 C 0.335938 1.105469 0.386719 1.097656 0.433594 1.082031 C 0.492188 1.0625 0.535156 1.027344 0.558594 0.980469 C 0.582031 0.929688 0.59375 0.871094 0.59375 0.800781 L 0.59375 -2.328125 C 0.59375 -2.386719 0.578125 -2.445312 0.550781 -2.5 C 0.519531 -2.554688 0.480469 -2.601562 0.433594 -2.632812 C 0.398438 -2.660156 0.347656 -2.675781 0.285156 -2.691406 C 0.21875 -2.703125 0.15625 -2.710938 0.0976562 -2.714844 L 0.0976562 -2.914062 L 1.101562 -2.976562 L 1.144531 -2.941406 L 1.144531 -2.609375 L 1.167969 -2.605469 C 1.269531 -2.722656 1.398438 -2.824219 1.550781 -2.902344 C 1.703125 -2.984375 1.855469 -3.023438 2.007812 -3.023438 C 2.191406 -3.023438 2.359375 -2.984375 2.511719 -2.90625 C 2.664062 -2.828125 2.792969 -2.722656 2.902344 -2.59375 M 2.417969 -0.476562 C 2.496094 -0.601562 2.554688 -0.742188 2.59375 -0.90625 C 2.628906 -1.070312 2.648438 -1.253906 2.648438 -1.453125 C 2.648438 -1.601562 2.632812 -1.75 2.601562 -1.902344 C 2.570312 -2.058594 2.519531 -2.191406 2.453125 -2.304688 C 2.386719 -2.417969 2.296875 -2.511719 2.1875 -2.582031 C 2.078125 -2.65625 1.945312 -2.691406 1.792969 -2.691406 C 1.644531 -2.691406 1.519531 -2.660156 1.417969 -2.59375 C 1.3125 -2.53125 1.222656 -2.453125 1.148438 -2.363281 L 1.148438 -0.625 C 1.167969 -0.570312 1.195312 -0.515625 1.238281 -0.457031 C 1.277344 -0.398438 1.324219 -0.347656 1.371094 -0.308594 C 1.433594 -0.257812 1.5 -0.21875 1.574219 -0.1875 C 1.644531 -0.15625 1.730469 -0.140625 1.835938 -0.140625 C 1.945312 -0.140625 2.054688 -0.167969 2.15625 -0.226562 C 2.261719 -0.285156 2.347656 -0.371094 2.417969 -0.476562 Z "/>
</g>
<g id="glyph-0-4">
<path d="M 2.15625 -1.441406 C 2.238281 -1.371094 2.300781 -1.285156 2.34375 -1.195312 C 2.390625 -1.101562 2.410156 -0.984375 2.410156 -0.851562 C 2.410156 -0.578125 2.308594 -0.355469 2.105469 -0.183594 C 1.902344 -0.0078125 1.636719 0.078125 1.3125 0.078125 C 1.140625 0.078125 0.984375 0.046875 0.839844 -0.015625 C 0.695312 -0.078125 0.59375 -0.132812 0.53125 -0.183594 L 0.472656 0.0078125 L 0.246094 0.0078125 L 0.21875 -1.015625 L 0.421875 -1.015625 C 0.441406 -0.9375 0.472656 -0.847656 0.523438 -0.742188 C 0.578125 -0.636719 0.640625 -0.542969 0.714844 -0.460938 C 0.789062 -0.371094 0.882812 -0.300781 0.992188 -0.238281 C 1.101562 -0.179688 1.222656 -0.148438 1.359375 -0.148438 C 1.546875 -0.148438 1.695312 -0.191406 1.800781 -0.28125 C 1.902344 -0.367188 1.953125 -0.492188 1.953125 -0.652344 C 1.953125 -0.738281 1.9375 -0.808594 1.90625 -0.871094 C 1.871094 -0.929688 1.824219 -0.984375 1.761719 -1.03125 C 1.695312 -1.074219 1.613281 -1.117188 1.519531 -1.152344 C 1.421875 -1.191406 1.316406 -1.226562 1.199219 -1.261719 C 1.105469 -1.289062 1.003906 -1.328125 0.886719 -1.378906 C 0.773438 -1.425781 0.675781 -1.484375 0.59375 -1.546875 C 0.507812 -1.617188 0.433594 -1.703125 0.378906 -1.804688 C 0.324219 -1.90625 0.296875 -2.027344 0.296875 -2.164062 C 0.296875 -2.402344 0.386719 -2.609375 0.5625 -2.773438 C 0.742188 -2.941406 0.984375 -3.027344 1.28125 -3.027344 C 1.398438 -3.027344 1.515625 -3.011719 1.636719 -2.980469 C 1.757812 -2.949219 1.855469 -2.914062 1.929688 -2.875 L 2 -3.027344 L 2.214844 -3.027344 L 2.257812 -2.082031 L 2.054688 -2.082031 C 2.011719 -2.292969 1.921875 -2.464844 1.78125 -2.597656 C 1.644531 -2.730469 1.476562 -2.796875 1.277344 -2.796875 C 1.113281 -2.796875 0.984375 -2.757812 0.890625 -2.675781 C 0.796875 -2.59375 0.75 -2.496094 0.75 -2.378906 C 0.75 -2.289062 0.765625 -2.214844 0.796875 -2.152344 C 0.828125 -2.09375 0.875 -2.042969 0.9375 -2.003906 C 0.996094 -1.960938 1.070312 -1.925781 1.164062 -1.890625 C 1.253906 -1.855469 1.363281 -1.816406 1.496094 -1.773438 C 1.628906 -1.730469 1.753906 -1.683594 1.871094 -1.625 C 1.984375 -1.570312 2.082031 -1.507812 2.15625 -1.441406 Z "/>
</g>
<g id="glyph-0-5">
<path d="M 1.640625 0 L 0.222656 0 L 0.222656 -0.195312 C 0.265625 -0.199219 0.3125 -0.203125 0.363281 -0.207031 C 0.410156 -0.210938 0.453125 -0.222656 0.488281 -0.234375 C 0.546875 -0.25 0.585938 -0.28125 0.613281 -0.328125 C 0.640625 -0.371094 0.652344 -0.429688 0.652344 -0.5 L 0.652344 -2.316406 C 0.652344 -2.378906 0.640625 -2.4375 0.609375 -2.488281 C 0.582031 -2.542969 0.542969 -2.585938 0.488281 -2.621094 C 0.453125 -2.648438 0.398438 -2.667969 0.324219 -2.683594 C 0.253906 -2.699219 0.1875 -2.710938 0.128906 -2.714844 L 0.128906 -2.914062 L 1.167969 -2.976562 L 1.207031 -2.9375 L 1.207031 -0.535156 C 1.207031 -0.46875 1.222656 -0.410156 1.25 -0.363281 C 1.273438 -0.316406 1.316406 -0.285156 1.375 -0.261719 C 1.417969 -0.246094 1.460938 -0.230469 1.5 -0.21875 C 1.542969 -0.207031 1.589844 -0.199219 1.640625 -0.195312 L 1.640625 0 M 1.269531 -4.136719 C 1.269531 -4.023438 1.230469 -3.925781 1.15625 -3.839844 C 1.082031 -3.757812 0.988281 -3.714844 0.878906 -3.714844 C 0.777344 -3.714844 0.691406 -3.753906 0.617188 -3.835938 C 0.542969 -3.917969 0.503906 -4.007812 0.503906 -4.113281 C 0.503906 -4.222656 0.542969 -4.316406 0.617188 -4.398438 C 0.691406 -4.480469 0.777344 -4.519531 0.878906 -4.519531 C 0.992188 -4.519531 1.085938 -4.480469 1.160156 -4.40625 C 1.230469 -4.328125 1.269531 -4.238281 1.269531 -4.136719 Z "/>
</g>
<g id="glyph-0-6">
<path d="M 1.59375 0 L 0.15625 0 L 0.15625 -0.195312 C 0.203125 -0.199219 0.253906 -0.207031 0.304688 -0.210938 C 0.355469 -0.214844 0.398438 -0.222656 0.433594 -0.234375 C 0.488281 -0.25 0.53125 -0.28125 0.558594 -0.328125 C 0.585938 -0.371094 0.601562 -0.429688 0.601562 -0.5 L 0.601562 -3.910156 C 0.601562 -3.984375 0.585938 -4.050781 0.554688 -4.113281 C 0.523438 -4.175781 0.480469 -4.226562 0.433594 -4.261719 C 0.398438 -4.285156 0.332031 -4.304688 0.234375 -4.328125 C 0.140625 -4.347656 0.0625 -4.359375 0.0078125 -4.363281 L 0.0078125 -4.554688 L 1.113281 -4.617188 L 1.15625 -4.574219 L 1.15625 -0.535156 C 1.15625 -0.46875 1.167969 -0.410156 1.195312 -0.367188 C 1.21875 -0.320312 1.261719 -0.285156 1.320312 -0.261719 C 1.363281 -0.242188 1.40625 -0.226562 1.449219 -0.21875 C 1.492188 -0.207031 1.539062 -0.199219 1.59375 -0.195312 Z "/>
</g>
<g id="glyph-0-7">
<path d="M 3.085938 -1.5 C 3.085938 -1.292969 3.050781 -1.089844 2.988281 -0.890625 C 2.921875 -0.691406 2.828125 -0.519531 2.707031 -0.382812 C 2.570312 -0.222656 2.410156 -0.105469 2.226562 -0.0273438 C 2.046875 0.0507812 1.84375 0.0898438 1.617188 0.0898438 C 1.429688 0.0898438 1.253906 0.0546875 1.085938 -0.015625 C 0.914062 -0.0859375 0.765625 -0.191406 0.632812 -0.324219 C 0.503906 -0.457031 0.402344 -0.621094 0.324219 -0.8125 C 0.246094 -1.003906 0.207031 -1.21875 0.207031 -1.460938 C 0.207031 -1.917969 0.34375 -2.292969 0.609375 -2.585938 C 0.878906 -2.878906 1.230469 -3.027344 1.664062 -3.027344 C 2.074219 -3.027344 2.414062 -2.886719 2.683594 -2.609375 C 2.953125 -2.332031 3.085938 -1.960938 3.085938 -1.5 M 2.46875 -1.496094 C 2.46875 -1.644531 2.453125 -1.800781 2.421875 -1.96875 C 2.394531 -2.132812 2.347656 -2.273438 2.289062 -2.390625 C 2.222656 -2.511719 2.140625 -2.613281 2.035156 -2.6875 C 1.933594 -2.761719 1.808594 -2.796875 1.65625 -2.796875 C 1.503906 -2.796875 1.371094 -2.761719 1.265625 -2.683594 C 1.15625 -2.609375 1.066406 -2.507812 1 -2.375 C 0.9375 -2.253906 0.890625 -2.117188 0.867188 -1.960938 C 0.839844 -1.804688 0.828125 -1.65625 0.828125 -1.511719 C 0.828125 -1.320312 0.84375 -1.140625 0.871094 -0.980469 C 0.902344 -0.816406 0.953125 -0.671875 1.019531 -0.546875 C 1.089844 -0.417969 1.171875 -0.320312 1.277344 -0.246094 C 1.378906 -0.171875 1.507812 -0.136719 1.65625 -0.136719 C 1.90625 -0.136719 2.105469 -0.257812 2.25 -0.5 C 2.394531 -0.738281 2.46875 -1.070312 2.46875 -1.496094 Z "/>
</g>
<g id="glyph-0-8">
<path d="M 3.464844 0 L 2.027344 0 L 2.027344 -0.195312 C 2.070312 -0.199219 2.121094 -0.203125 2.175781 -0.207031 C 2.230469 -0.210938 2.277344 -0.222656 2.3125 -0.234375 C 2.367188 -0.25 2.410156 -0.28125 2.4375 -0.328125 C 2.464844 -0.371094 2.476562 -0.429688 2.476562 -0.5 L 2.476562 -2.015625 C 2.476562 -2.222656 2.425781 -2.382812 2.328125 -2.496094 C 2.230469 -2.609375 2.109375 -2.667969 1.96875 -2.667969 C 1.863281 -2.667969 1.765625 -2.652344 1.679688 -2.617188 C 1.589844 -2.585938 1.511719 -2.546875 1.445312 -2.496094 C 1.378906 -2.453125 1.328125 -2.402344 1.289062 -2.351562 C 1.25 -2.296875 1.21875 -2.253906 1.203125 -2.222656 L 1.203125 -0.53125 C 1.203125 -0.464844 1.214844 -0.40625 1.246094 -0.363281 C 1.273438 -0.320312 1.3125 -0.285156 1.371094 -0.261719 C 1.410156 -0.242188 1.457031 -0.226562 1.503906 -0.21875 C 1.554688 -0.207031 1.605469 -0.199219 1.65625 -0.195312 L 1.65625 0 L 0.214844 0 L 0.214844 -0.195312 C 0.261719 -0.199219 0.308594 -0.203125 0.355469 -0.207031 C 0.40625 -0.210938 0.449219 -0.222656 0.484375 -0.234375 C 0.539062 -0.25 0.582031 -0.28125 0.605469 -0.328125 C 0.632812 -0.371094 0.648438 -0.429688 0.648438 -0.5 L 0.648438 -2.316406 C 0.648438 -2.382812 0.632812 -2.445312 0.605469 -2.503906 C 0.574219 -2.558594 0.535156 -2.605469 0.484375 -2.640625 C 0.445312 -2.664062 0.402344 -2.683594 0.347656 -2.691406 C 0.296875 -2.703125 0.242188 -2.710938 0.183594 -2.714844 L 0.183594 -2.914062 L 1.160156 -2.976562 L 1.203125 -2.9375 L 1.203125 -2.519531 L 1.21875 -2.519531 C 1.265625 -2.570312 1.324219 -2.625 1.394531 -2.691406 C 1.46875 -2.757812 1.535156 -2.8125 1.597656 -2.855469 C 1.671875 -2.902344 1.761719 -2.941406 1.863281 -2.976562 C 1.964844 -3.007812 2.078125 -3.023438 2.203125 -3.023438 C 2.488281 -3.023438 2.695312 -2.933594 2.832031 -2.757812 C 2.96875 -2.582031 3.039062 -2.347656 3.039062 -2.054688 L 3.039062 -0.523438 C 3.039062 -0.457031 3.050781 -0.398438 3.074219 -0.355469 C 3.097656 -0.3125 3.136719 -0.28125 3.195312 -0.257812 C 3.242188 -0.238281 3.285156 -0.222656 3.320312 -0.214844 C 3.355469 -0.207031 3.402344 -0.199219 3.464844 -0.195312 Z "/>
</g>
<g id="glyph-0-9">
</g>
<g id="glyph-0-10">
<path d="M 3.4375 -0.0546875 L 2.40625 0.0117188 L 2.363281 -0.03125 L 2.363281 -0.304688 L 2.339844 -0.308594 C 2.234375 -0.195312 2.109375 -0.101562 1.957031 -0.0273438 C 1.804688 0.046875 1.648438 0.0820312 1.488281 0.0820312 C 1.320312 0.0820312 1.160156 0.046875 1.003906 -0.0273438 C 0.847656 -0.101562 0.710938 -0.207031 0.597656 -0.34375 C 0.480469 -0.480469 0.386719 -0.644531 0.316406 -0.839844 C 0.25 -1.03125 0.214844 -1.246094 0.214844 -1.476562 C 0.214844 -1.691406 0.25 -1.890625 0.324219 -2.082031 C 0.398438 -2.273438 0.5 -2.441406 0.628906 -2.582031 C 0.75 -2.71875 0.898438 -2.824219 1.074219 -2.902344 C 1.25 -2.984375 1.429688 -3.023438 1.613281 -3.023438 C 1.75 -3.023438 1.882812 -3.003906 2.015625 -2.96875 C 2.148438 -2.933594 2.261719 -2.890625 2.355469 -2.835938 L 2.355469 -3.863281 C 2.355469 -3.945312 2.34375 -4.023438 2.316406 -4.089844 C 2.289062 -4.160156 2.25 -4.210938 2.199219 -4.25 C 2.144531 -4.285156 2.066406 -4.3125 1.972656 -4.332031 C 1.878906 -4.347656 1.777344 -4.359375 1.667969 -4.367188 L 1.667969 -4.554688 L 2.875 -4.617188 L 2.917969 -4.574219 L 2.917969 -0.609375 C 2.917969 -0.539062 2.929688 -0.480469 2.957031 -0.429688 C 2.984375 -0.382812 3.023438 -0.339844 3.078125 -0.308594 C 3.113281 -0.285156 3.167969 -0.269531 3.242188 -0.261719 C 3.3125 -0.257812 3.378906 -0.253906 3.4375 -0.25 L 3.4375 -0.0546875 M 2.355469 -0.570312 L 2.355469 -2.292969 C 2.339844 -2.34375 2.316406 -2.398438 2.28125 -2.457031 C 2.242188 -2.519531 2.199219 -2.574219 2.144531 -2.621094 C 2.089844 -2.671875 2.019531 -2.714844 1.941406 -2.746094 C 1.867188 -2.78125 1.777344 -2.796875 1.671875 -2.796875 C 1.554688 -2.796875 1.445312 -2.765625 1.34375 -2.703125 C 1.242188 -2.640625 1.152344 -2.554688 1.078125 -2.4375 C 1.003906 -2.328125 0.945312 -2.183594 0.902344 -2.011719 C 0.859375 -1.839844 0.839844 -1.648438 0.839844 -1.441406 C 0.839844 -1.273438 0.855469 -1.121094 0.886719 -0.984375 C 0.917969 -0.851562 0.972656 -0.722656 1.046875 -0.605469 C 1.117188 -0.496094 1.207031 -0.40625 1.3125 -0.335938 C 1.421875 -0.269531 1.550781 -0.234375 1.699219 -0.234375 C 1.859375 -0.234375 1.988281 -0.269531 2.09375 -0.339844 C 2.199219 -0.410156 2.285156 -0.488281 2.355469 -0.570312 Z "/>
</g>
<g id="glyph-0-11">
<path d="M 2.03125 -0.128906 C 1.902344 -0.0742188 1.78125 -0.03125 1.664062 0.0078125 C 1.550781 0.0429688 1.410156 0.0625 1.242188 0.0625 C 0.996094 0.0625 0.820312 0 0.71875 -0.125 C 0.621094 -0.25 0.570312 -0.421875 0.570312 -0.652344 L 0.570312 -2.644531 L 0.0390625 -2.644531 L 0.0390625 -2.929688 L 0.582031 -2.929688 L 0.582031 -3.847656 L 1.125 -3.847656 L 1.125 -2.929688 L 1.96875 -2.929688 L 1.96875 -2.644531 L 1.128906 -2.644531 L 1.128906 -1 C 1.128906 -0.875 1.136719 -0.773438 1.144531 -0.691406 C 1.152344 -0.609375 1.175781 -0.535156 1.207031 -0.472656 C 1.242188 -0.417969 1.289062 -0.371094 1.351562 -0.34375 C 1.414062 -0.3125 1.5 -0.296875 1.609375 -0.296875 C 1.65625 -0.296875 1.730469 -0.304688 1.828125 -0.3125 C 1.925781 -0.320312 1.992188 -0.332031 2.03125 -0.347656 Z "/>
</g>
<g id="glyph-0-12">
<path d="M 3 -0.0546875 C 2.90625 -0.0195312 2.824219 0.0078125 2.753906 0.0273438 C 2.683594 0.0507812 2.605469 0.0585938 2.515625 0.0585938 C 2.359375 0.0585938 2.234375 0.0234375 2.144531 -0.0507812 C 2.050781 -0.121094 1.992188 -0.226562 1.964844 -0.367188 L 1.949219 -0.367188 C 1.820312 -0.222656 1.679688 -0.113281 1.53125 -0.0390625 C 1.382812 0.0351562 1.207031 0.0742188 0.996094 0.0742188 C 0.777344 0.0742188 0.59375 0.0078125 0.453125 -0.128906 C 0.308594 -0.261719 0.238281 -0.441406 0.238281 -0.660156 C 0.238281 -0.773438 0.253906 -0.875 0.285156 -0.964844 C 0.316406 -1.054688 0.367188 -1.132812 0.429688 -1.207031 C 0.480469 -1.265625 0.546875 -1.316406 0.625 -1.363281 C 0.707031 -1.410156 0.785156 -1.449219 0.855469 -1.476562 C 0.945312 -1.511719 1.128906 -1.574219 1.402344 -1.664062 C 1.675781 -1.757812 1.859375 -1.828125 1.953125 -1.878906 L 1.953125 -2.175781 C 1.953125 -2.199219 1.949219 -2.25 1.9375 -2.324219 C 1.925781 -2.398438 1.902344 -2.46875 1.867188 -2.53125 C 1.828125 -2.605469 1.773438 -2.671875 1.699219 -2.726562 C 1.625 -2.78125 1.523438 -2.808594 1.390625 -2.808594 C 1.300781 -2.808594 1.214844 -2.792969 1.136719 -2.761719 C 1.058594 -2.730469 1 -2.699219 0.96875 -2.664062 C 0.96875 -2.625 0.980469 -2.566406 1 -2.488281 C 1.015625 -2.410156 1.027344 -2.339844 1.027344 -2.273438 C 1.027344 -2.203125 0.996094 -2.140625 0.933594 -2.082031 C 0.871094 -2.023438 0.78125 -1.996094 0.671875 -1.996094 C 0.570312 -1.996094 0.5 -2.03125 0.453125 -2.101562 C 0.40625 -2.171875 0.382812 -2.25 0.382812 -2.339844 C 0.382812 -2.429688 0.414062 -2.519531 0.480469 -2.601562 C 0.542969 -2.683594 0.628906 -2.761719 0.730469 -2.824219 C 0.820312 -2.882812 0.929688 -2.929688 1.054688 -2.96875 C 1.183594 -3.007812 1.308594 -3.027344 1.429688 -3.027344 C 1.597656 -3.027344 1.742188 -3.015625 1.867188 -2.992188 C 1.992188 -2.96875 2.105469 -2.917969 2.203125 -2.84375 C 2.304688 -2.769531 2.382812 -2.671875 2.4375 -2.542969 C 2.488281 -2.417969 2.515625 -2.253906 2.515625 -2.054688 C 2.515625 -1.769531 2.511719 -1.519531 2.507812 -1.300781 C 2.5 -1.078125 2.496094 -0.839844 2.496094 -0.578125 C 2.496094 -0.5 2.511719 -0.441406 2.539062 -0.394531 C 2.566406 -0.347656 2.605469 -0.308594 2.660156 -0.277344 C 2.691406 -0.257812 2.738281 -0.25 2.804688 -0.246094 C 2.867188 -0.246094 2.933594 -0.246094 3 -0.246094 L 3 -0.0546875 M 1.960938 -1.628906 C 1.792969 -1.578125 1.644531 -1.53125 1.515625 -1.484375 C 1.386719 -1.433594 1.269531 -1.375 1.160156 -1.304688 C 1.0625 -1.234375 0.984375 -1.15625 0.925781 -1.0625 C 0.867188 -0.96875 0.839844 -0.859375 0.839844 -0.730469 C 0.839844 -0.566406 0.882812 -0.445312 0.96875 -0.367188 C 1.054688 -0.289062 1.164062 -0.25 1.296875 -0.25 C 1.4375 -0.25 1.5625 -0.285156 1.671875 -0.355469 C 1.777344 -0.421875 1.867188 -0.503906 1.941406 -0.597656 Z "/>
</g>
<g id="glyph-1-0">
<path d="M 1.71875 -3.054688 C 1.734375 -3.261719 1.742188 -3.523438 1.742188 -3.84375 L 0.929688 -3.84375 L 0.714844 -3.796875 L 0.523438 -3.984375 L 1.742188 -3.984375 C 1.742188 -4.351562 1.734375 -4.671875 1.71875 -4.941406 L 2.21875 -4.679688 L 2.054688 -4.511719 L 2.054688 -3.984375 L 2.9375 -3.984375 C 2.9375 -4.367188 2.929688 -4.695312 2.914062 -4.964844 L 3.414062 -4.703125 L 3.246094 -4.558594 L 3.246094 -3.984375 L 4.105469 -3.984375 C 4.105469 -4.351562 4.097656 -4.671875 4.082031 -4.941406 L 4.582031 -4.679688 L 4.414062 -4.535156 L 4.414062 -3.984375 L 4.84375 -3.984375 L 5.179688 -4.320312 L 5.65625 -3.84375 L 4.414062 -3.84375 C 4.414062 -3.589844 4.425781 -3.375 4.441406 -3.199219 L 4.082031 -3.054688 C 4.097656 -3.308594 4.105469 -3.574219 4.105469 -3.84375 L 3.246094 -3.84375 C 3.246094 -3.605469 3.253906 -3.398438 3.269531 -3.222656 L 2.914062 -3.078125 C 2.929688 -3.332031 2.9375 -3.589844 2.9375 -3.84375 L 2.054688 -3.84375 C 2.054688 -3.636719 2.0625 -3.421875 2.078125 -3.199219 L 1.71875 -3.054688 M 3.246094 -1.765625 C 3.246094 -0.574219 3.253906 0.175781 3.269531 0.476562 L 2.914062 0.621094 C 2.929688 0.238281 2.9375 -0.558594 2.9375 -1.765625 L 1.765625 -1.765625 L 1.765625 -0.0234375 L 1.433594 0.167969 C 1.449219 -0.261719 1.457031 -0.65625 1.457031 -1.015625 C 1.457031 -1.371094 1.449219 -1.726562 1.433594 -2.078125 L 1.765625 -1.910156 L 2.9375 -1.910156 L 2.9375 -2.671875 L 1.027344 -2.671875 C 1.042969 -2.371094 0.996094 -2.1875 0.882812 -2.125 C 0.773438 -2.0625 0.683594 -2.027344 0.621094 -2.027344 C 0.558594 -2.027344 0.503906 -2.046875 0.464844 -2.089844 C 0.425781 -2.128906 0.40625 -2.164062 0.40625 -2.195312 C 0.40625 -2.242188 0.460938 -2.308594 0.574219 -2.386719 C 0.730469 -2.5 0.851562 -2.738281 0.929688 -3.101562 L 1.027344 -3.101562 L 1.027344 -2.816406 L 5.15625 -2.816406 L 5.371094 -3.078125 L 5.800781 -2.625 C 5.578125 -2.609375 5.292969 -2.425781 4.941406 -2.078125 L 4.871094 -2.125 L 5.179688 -2.671875 L 3.246094 -2.671875 L 3.246094 -1.910156 L 4.390625 -1.910156 L 4.605469 -2.148438 L 4.988281 -1.839844 L 4.773438 -1.671875 L 4.773438 -0.40625 C 4.789062 -0.136719 4.628906 0.0625 4.296875 0.191406 C 4.296875 0.03125 4.066406 -0.128906 3.605469 -0.285156 L 3.605469 -0.40625 C 3.9375 -0.359375 4.164062 -0.335938 4.285156 -0.335938 C 4.402344 -0.335938 4.464844 -0.390625 4.464844 -0.5 L 4.464844 -1.765625 Z "/>
</g>
<g id="glyph-1-1">
<path d="M 0.359375 -1.195312 L 3.582031 -1.195312 L 3.890625 -1.503906 L 4.34375 -1.050781 L 1.121094 -1.050781 C 0.929688 -1.050781 0.746094 -1.027344 0.574219 -0.980469 L 0.359375 -1.195312 M 1.625 -2.484375 C 1.6875 -3.453125 1.722656 -4.042969 1.730469 -4.25 C 1.738281 -4.457031 1.742188 -4.695312 1.742188 -4.964844 L 2.292969 -4.703125 L 2.101562 -4.558594 L 2.054688 -3.675781 L 4.84375 -3.675781 L 5.15625 -3.984375 L 5.609375 -3.53125 L 2.054688 -3.53125 L 1.980469 -2.410156 L 4.796875 -2.410156 L 4.988281 -2.699219 L 5.417969 -2.386719 L 5.203125 -2.195312 C 5.171875 -1.605469 5.125 -1.09375 5.058594 -0.65625 C 4.996094 -0.21875 4.882812 0.0742188 4.714844 0.226562 C 4.546875 0.378906 4.328125 0.484375 4.058594 0.550781 C 4.074219 0.34375 3.8125 0.160156 3.269531 0 L 3.292969 -0.121094 C 3.644531 -0.0390625 3.945312 0 4.199219 0 C 4.457031 0 4.621094 -0.234375 4.703125 -0.703125 C 4.78125 -1.171875 4.828125 -1.695312 4.84375 -2.269531 L 2.003906 -2.269531 L 1.8125 -2.027344 L 1.433594 -2.316406 Z "/>
</g>
<g id="glyph-1-2">
<path d="M 1.074219 -3.605469 L 1.074219 -2.078125 L 2.316406 -2.078125 L 2.316406 -3.605469 L 1.074219 -3.605469 M 1.074219 -1.933594 L 1.074219 -0.261719 L 2.316406 -0.261719 L 2.316406 -1.933594 L 1.074219 -1.933594 M 2.625 -3.460938 C 2.625 -1.597656 2.632812 -0.382812 2.648438 0.191406 L 2.316406 0.382812 L 2.316406 -0.121094 L 1.074219 -0.121094 L 1.074219 0.285156 L 0.738281 0.476562 C 0.757812 -0.269531 0.765625 -1.015625 0.765625 -1.753906 C 0.765625 -2.496094 0.757812 -3.230469 0.738281 -3.960938 L 1.097656 -3.746094 L 1.335938 -3.746094 C 1.496094 -4.289062 1.582031 -4.703125 1.597656 -4.988281 L 2.125 -4.703125 C 1.964844 -4.621094 1.75 -4.304688 1.480469 -3.746094 L 2.269531 -3.746094 L 2.507812 -3.984375 L 2.863281 -3.628906 L 2.625 -3.460938 M 3.796875 -4.964844 L 4.320312 -4.65625 C 4.191406 -4.574219 3.996094 -4.25 3.722656 -3.675781 L 5.011719 -3.675781 L 5.273438 -3.9375 L 5.632812 -3.582031 L 5.417969 -3.414062 C 5.386719 -1.550781 5.34375 -0.496094 5.289062 -0.25 C 5.230469 -0.00390625 5.152344 0.167969 5.046875 0.261719 C 4.945312 0.359375 4.78125 0.445312 4.558594 0.523438 C 4.480469 0.269531 4.21875 0.078125 3.769531 -0.046875 L 3.769531 -0.167969 C 4.167969 -0.0859375 4.457031 -0.046875 4.628906 -0.046875 C 4.804688 -0.046875 4.914062 -0.183594 4.953125 -0.453125 C 4.992188 -0.722656 5.027344 -1.75 5.058594 -3.53125 L 3.675781 -3.53125 C 3.390625 -3.070312 3.085938 -2.679688 2.769531 -2.363281 L 2.699219 -2.410156 C 3.03125 -2.921875 3.277344 -3.375 3.4375 -3.769531 C 3.597656 -4.167969 3.714844 -4.566406 3.796875 -4.964844 M 3.367188 -2.625 C 3.746094 -2.339844 3.96875 -2.128906 4.035156 -1.992188 C 4.097656 -1.859375 4.128906 -1.757812 4.128906 -1.695312 C 4.128906 -1.582031 4.097656 -1.488281 4.035156 -1.410156 C 3.96875 -1.328125 3.921875 -1.289062 3.890625 -1.289062 C 3.828125 -1.289062 3.78125 -1.398438 3.746094 -1.625 C 3.683594 -1.941406 3.539062 -2.25 3.316406 -2.554688 Z "/>
</g>
<g id="glyph-1-3">
<path d="M 1.671875 -4.871094 L 1.71875 -4.941406 C 2.035156 -4.765625 2.277344 -4.605469 2.433594 -4.464844 C 2.59375 -4.320312 2.671875 -4.183594 2.671875 -4.058594 C 2.671875 -3.976562 2.644531 -3.890625 2.589844 -3.796875 C 2.535156 -3.699219 2.5 -3.652344 2.484375 -3.652344 C 2.417969 -3.652344 2.347656 -3.761719 2.269531 -3.984375 C 2.140625 -4.304688 1.941406 -4.597656 1.671875 -4.871094 M 3.222656 -3.339844 C 3.207031 -2.929688 3.183594 -2.5 3.152344 -2.054688 L 4.964844 -2.054688 L 5.324219 -2.410156 L 5.824219 -1.910156 L 3.460938 -1.910156 C 3.605469 -1.496094 3.859375 -1.097656 4.226562 -0.714844 C 4.589844 -0.335938 5.125 -0.046875 5.824219 0.144531 L 5.824219 0.214844 C 5.570312 0.230469 5.394531 0.335938 5.300781 0.523438 C 4.871094 0.300781 4.476562 0.00390625 4.117188 -0.371094 C 3.757812 -0.742188 3.492188 -1.257812 3.316406 -1.910156 L 3.125 -1.910156 C 2.984375 -1.320312 2.675781 -0.816406 2.207031 -0.394531 C 1.738281 0.0273438 1.121094 0.359375 0.359375 0.597656 L 0.335938 0.5 C 1.144531 0.152344 1.726562 -0.234375 2.078125 -0.65625 C 2.425781 -1.078125 2.65625 -1.496094 2.769531 -1.910156 L 1.121094 -1.910156 C 0.914062 -1.910156 0.722656 -1.886719 0.550781 -1.839844 L 0.335938 -2.054688 L 2.792969 -2.054688 C 2.824219 -2.402344 2.839844 -2.832031 2.839844 -3.339844 L 1.433594 -3.339844 C 1.226562 -3.339844 1.035156 -3.316406 0.859375 -3.269531 L 0.644531 -3.484375 L 3.339844 -3.484375 C 3.46875 -3.707031 3.589844 -3.964844 3.699219 -4.261719 C 3.8125 -4.554688 3.890625 -4.796875 3.9375 -4.988281 L 4.511719 -4.605469 L 4.226562 -4.488281 C 3.953125 -4.074219 3.714844 -3.738281 3.507812 -3.484375 L 4.75 -3.484375 L 5.085938 -3.820312 L 5.5625 -3.339844 Z "/>
</g>
<g id="glyph-1-4">
<path d="M 4.75 -1.863281 L 3.4375 -1.765625 L 3.4375 -0.191406 C 3.46875 0.191406 3.285156 0.4375 2.886719 0.550781 C 2.886719 0.292969 2.640625 0.113281 2.148438 0 L 2.148438 -0.09375 C 2.5625 -0.046875 2.828125 -0.0234375 2.949219 -0.0234375 C 3.066406 -0.0234375 3.117188 -0.136719 3.101562 -0.359375 L 3.101562 -1.71875 C 2.65625 -1.6875 2.296875 -1.644531 2.015625 -1.585938 C 1.738281 -1.53125 1.519531 -1.472656 1.359375 -1.410156 L 1.121094 -1.863281 C 1.296875 -1.878906 1.570312 -1.972656 1.945312 -2.148438 C 2.320312 -2.324219 2.839844 -2.617188 3.507812 -3.03125 C 2.871094 -2.96875 2.425781 -2.90625 2.171875 -2.851562 C 1.917969 -2.796875 1.710938 -2.730469 1.550781 -2.648438 L 1.3125 -3.125 C 1.535156 -3.144531 1.808594 -3.273438 2.136719 -3.519531 C 2.460938 -3.765625 2.730469 -4.042969 2.9375 -4.34375 C 1.996094 -4.28125 1.34375 -4.25 0.980469 -4.25 L 0.980469 -4.34375 C 1.933594 -4.425781 2.714844 -4.515625 3.316406 -4.617188 C 3.921875 -4.722656 4.433594 -4.855469 4.84375 -5.011719 L 5.203125 -4.558594 C 4.964844 -4.574219 4.644531 -4.558594 4.238281 -4.511719 C 3.832031 -4.464844 3.429688 -4.414062 3.03125 -4.367188 L 3.507812 -4.128906 C 3.300781 -4.097656 3.023438 -3.9375 2.671875 -3.652344 C 2.308594 -3.367188 2.027344 -3.183594 1.839844 -3.101562 L 3.722656 -3.175781 C 4.027344 -3.382812 4.257812 -3.589844 4.414062 -3.796875 L 4.871094 -3.414062 C 4.695312 -3.398438 4.496094 -3.324219 4.273438 -3.199219 C 4.035156 -3.054688 3.632812 -2.824219 3.066406 -2.507812 C 2.503906 -2.1875 2.085938 -1.964844 1.8125 -1.839844 L 4.65625 -1.980469 C 4.414062 -2.21875 4.21875 -2.394531 4.058594 -2.507812 L 4.105469 -2.578125 C 4.535156 -2.417969 4.847656 -2.28125 5.046875 -2.160156 C 5.246094 -2.039062 5.351562 -1.914062 5.359375 -1.777344 C 5.367188 -1.644531 5.335938 -1.519531 5.261719 -1.410156 C 5.191406 -1.296875 5.121094 -1.304688 5.046875 -1.433594 C 4.976562 -1.558594 4.878906 -1.703125 4.75 -1.863281 M 3.820312 -1.242188 C 4.566406 -0.921875 5.03125 -0.699219 5.214844 -0.574219 C 5.398438 -0.445312 5.496094 -0.304688 5.515625 -0.15625 C 5.53125 -0.00390625 5.511719 0.113281 5.453125 0.191406 C 5.398438 0.269531 5.363281 0.308594 5.347656 0.308594 C 5.265625 0.308594 5.179688 0.214844 5.085938 0.0234375 C 4.925781 -0.261719 4.488281 -0.660156 3.769531 -1.167969 L 3.820312 -1.242188 M 2.148438 -1.335938 L 2.578125 -0.90625 C 2.449219 -0.90625 2.1875 -0.757812 1.789062 -0.453125 C 1.390625 -0.136719 0.929688 0.136719 0.40625 0.359375 L 0.359375 0.285156 C 0.707031 0.078125 1.046875 -0.164062 1.371094 -0.441406 C 1.699219 -0.71875 1.957031 -1.019531 2.148438 -1.335938 Z "/>
</g>
</g>
</defs>
<g fill="rgb(100%, 100%, 100%)" fill-opacity="1">
<use xlink:href="#glyph-0-0" x="30" y="25.603516"/>
<use xlink:href="#glyph-0-1" x="34" y="25.603516"/>
<use xlink:href="#glyph-0-2" x="37" y="25.603516"/>
<use xlink:href="#glyph-0-3" x="40" y="25.603516"/>
<use xlink:href="#glyph-0-4" x="43" y="25.603516"/>
<use xlink:href="#glyph-0-5" x="46" y="25.603516"/>
<use xlink:href="#glyph-0-6" x="48" y="25.603516"/>
<use xlink:href="#glyph-0-7" x="50" y="25.603516"/>
<use xlink:href="#glyph-0-8" x="53" y="25.603516"/>
<use xlink:href="#glyph-0-0" x="57" y="25.603516"/>
<use xlink:href="#glyph-0-9" x="61" y="25.603516"/>
</g>
<g fill="rgb(100%, 100%, 100%)" fill-opacity="1">
<use xlink:href="#glyph-1-0" x="62" y="25.603516"/>
<use xlink:href="#glyph-1-1" x="68" y="25.603516"/>
</g>
<g fill="rgb(100%, 100%, 100%)" fill-opacity="1">
<use xlink:href="#glyph-0-9" x="74" y="25.603516"/>
<use xlink:href="#glyph-0-0" x="75" y="25.603516"/>
<use xlink:href="#glyph-0-1" x="79" y="25.603516"/>
</g>
<g fill="rgb(100%, 100%, 100%)" fill-opacity="1">
<use xlink:href="#glyph-0-10" x="82" y="25.603516"/>
<use xlink:href="#glyph-0-2" x="86" y="25.603516"/>
<use xlink:href="#glyph-0-6" x="89" y="25.603516"/>
<use xlink:href="#glyph-0-11" x="91" y="25.603516"/>
<use xlink:href="#glyph-0-12" x="93" y="25.603516"/>
<use xlink:href="#glyph-0-0" x="96" y="25.603516"/>
<use xlink:href="#glyph-0-9" x="100" y="25.603516"/>
</g>
<g fill="rgb(100%, 100%, 100%)" fill-opacity="1">
<use xlink:href="#glyph-1-0" x="101" y="25.603516"/>
<use xlink:href="#glyph-1-2" x="107" y="25.603516"/>
<use xlink:href="#glyph-1-3" x="113" y="25.603516"/>
<use xlink:href="#glyph-1-4" x="119" y="25.603516"/>
</g>
</svg>
